<?xml version="1.0" encoding="utf-8"?>
<!-- Generator: Adobe Illustrator 19.2.1, SVG Export Plug-In . SVG Version: 6.00 Build 0)  -->
<svg version="1.1" id="Layer_1" xmlns="http://www.w3.org/2000/svg" xmlns:xlink="http://www.w3.org/1999/xlink" x="0px" y="0px"
	 viewBox="0 0 192.8 192.8" style="enable-background:new 0 0 192.8 192.8;" xml:space="preserve">
<style type="text/css">
	.st0{fill-rule:evenodd;clip-rule:evenodd;fill:#FFFFFF;}
	.st1{fill-rule:evenodd;clip-rule:evenodd;fill:#383839;stroke:#383839;stroke-width:0.6863;stroke-miterlimit:2.6131;}
	.st2{fill-rule:evenodd;clip-rule:evenodd;fill:#FFFFFF;stroke:#000000;stroke-width:0.6863;stroke-miterlimit:2.6131;}
	.st3{fill-rule:evenodd;clip-rule:evenodd;}
	.st4{fill-rule:evenodd;clip-rule:evenodd;fill:#636466;stroke:#5A5B5D;stroke-width:0.6863;stroke-miterlimit:2.6131;}
	.st5{fill-rule:evenodd;clip-rule:evenodd;fill:#383839;}
	.st6{fill:none;stroke:#FFFFFF;stroke-width:0.6863;stroke-miterlimit:2.6131;}
	.st7{fill-rule:evenodd;clip-rule:evenodd;fill:#383839;stroke:#FFFFFF;stroke-width:0.6863;stroke-miterlimit:2.6131;}
	.st8{fill:none;stroke:#000000;stroke-width:0.6863;stroke-miterlimit:2.6131;}
	.st9{fill:none;stroke:#58595B;stroke-width:0.6863;stroke-miterlimit:2.6131;}
	.st10{fill:none;stroke:#6D6E71;stroke-width:0.6863;stroke-miterlimit:2.6131;}
	.st11{fill:none;stroke:#383839;stroke-width:0.6863;stroke-miterlimit:2.6131;}
	.st12{fill-rule:evenodd;clip-rule:evenodd;fill:#717375;}
	.st13{fill:none;stroke:#FFFFFF;stroke-width:0.2941;stroke-miterlimit:2.6131;}
	.st14{fill-rule:evenodd;clip-rule:evenodd;fill:#636466;}
	.st15{fill:none;stroke:#5A5B5D;stroke-width:0.6863;stroke-miterlimit:2.6131;}
	.st16{fill:none;stroke:#000000;stroke-width:1.3727;stroke-miterlimit:2.6131;}
</style>
<g>
	<polygon class="st0" points="0,0 192.8,0 192.8,192.8 0,192.8 0,0 	"/>
	<path class="st1" d="M111.3,131.8c0-0.3,4.9-7.1,5.6-7.5c4.2-2.4,1.3-4.5,3.1-8.7c1.2-3-1.3-4.1-2.6-6.6c-1.5,2.4-3.2,5.1-5.6,5.6
		c-6.7,1.4-13.5-0.6-20.2,0.2c-0.6,0-0.1,2.4-0.5,3.6c-0.9,2.9-1.8,5.8-3.1,8.5c-0.8,1.6-2,2.9-2.2,4.9c-1.4-0.1-2.6-0.8-4.1-0.7
		c0.4-3.3-3.7-3.8-5-6.2c-0.2-0.4-0.5-1-0.5-1.6c-0.6,2.1-1.8,4.5-4.4,3.4c0,0.9,0,1.8,0,2.7c-1.7-0.1-2.8-1.4-4.4-1.7
		c0.1,0,0.2,0,0.3,0c-0.1-0.6-0.8-1.3-0.6-1.6c2.1-2.4,0.4-5.1-0.3-7.4c-1-3.1-0.9-7.4-3.8-9.3c-1.4-1-4.6,1.9-5.5,3.3
		c-2.9,4.5-1.9,5.7-3.4,9.6c-0.7-1.7-2.5-1.9-3.6-3.2c-1.1-1.3-1.9-3.1-2.5-4.7c-0.6-1.5-2-2.2-2.4-3.7c-0.8-3.1,0.5-7-1.7-8.8
		c-5.8-4.8-6.4-11.9-5.1-18.5c0.7,2.2,0.4,3.5,2.2,5.3c-0.1-2.3,0.4-3.3,1.7-5.2c1.4-1.9,4.1-0.9,5.9-2.2c2-1.5,4.3-2.2,5.5-4.4
		c3.2,0.8,6.1-1,8.3-3c2.5-2.3,3.7-6,7.4-6.4c8.2-0.8,15.9,0.4,24.2,2.2c1,0.2,2-0.1,3,0.1c0.5,0.1,0.9,0.8,1.4,0.8
		c2.5,0.1,4.3,1.5,6.3,2.8c3.7,2.5,8.1,3.2,12.4,3.8c4.6,0.6,8.7,1.8,13.2,2.6c4.7,0.8,9.4,1.7,12.6,5.8c1.6,2.1,2.9,4.1,3.7,6.5
		c0.6,1.9,1,3.8,1.7,5.7c0.6,1.9,1.5,3.6,1.8,5.5c0.4,2.4-0.7,4.6,0,6.8c-2.2-2.1-3.6-4.7-4.1-7.5c-1-5.4,0.3-12-5-15.3
		c0.1,2.2,0.6,4.3,0.9,6.5c0.8,4.7-1.5,8.9-0.8,13.6c0.3,2.2,5,2.8,5.3,4.2c1.6,6.6-1.5,11.7,2.4,19.3c-2,0.2-5.2,1.4-5.3,0.1
		c-0.2-3.2-0.2-9-1.1-13.6c-0.2-1.2-1.4-2.4-2.5-3c-3.7-1.9-7.6-2.9-11.1-5.4c-0.8-0.6-1-1.8-1.8-2.6c0,2.6,0.1,5,0.9,7.5
		c0.9,2.8-2,4.4-3.4,6.6c-0.3,0.4-0.8,1.5-1.1,1.8c-0.9,1.1-2,2.4-2.6,3.6c-1.3,2.4-3.3,3.9-5.2,5.3L111.3,131.8L111.3,131.8z"/>
	<path class="st2" d="M71,129.5c0,3-3.4,7.5-3.4,7.5l-2.7-0.7c2.7-3.8,3.2-8.3,3.2-8.3L71,129.5L71,129.5z"/>
	<path class="st0" d="M62.7,91.6c0.7,2.7,2.4,3.4,2.4,3.4c6.8-7.8-3.1-10.2-3.1-10.2C67.1,90.6,62.7,91.6,62.7,91.6L62.7,91.6z"/>
	<path class="st0" d="M75.2,71.4c0,0.1,0.1,0.2,0.3,0.3c-0.9-0.6-0.9,1.1-1.7,0.7c-0.2,0.6-1.4,1.2-0.9,1.5c1.4,0.7,4-0.6,4.5,1.3
		c0.3,1.2-1.3,1.8,1.5,2.7c0.2,0.1,0.1,0.6,0,1c0,0.2-0.3,0.5-0.6,0.3c-1.2-0.9-2.5-1.7-2.1-3.4c-2.5,0.6-4.8,0-7.1-0.8
		c-0.1,0-0.3-0.9,0.3-1.2c0.3-0.1,0.8,0.1,0.9,0c1-1.4,2.4-1.8,3.8-2.4c-1.9-1.9-4-0.2-6.1,0c-0.2,0-0.4-0.3-0.3-0.6
		c0.2-0.6,1-0.4,1.4-0.5c2.3-0.3,4.6-0.8,6.8-0.1c0.1,0,0,0.6,0,0.9C75.5,70.9,75.2,71.1,75.2,71.4L75.2,71.4z"/>
	<path class="st0" d="M80.2,74.4c0,0.6-0.2,1.7,0.1,1.8c1.6,0.8,3.3-1.1,5-1c0.7,0.1,1.1,2.2,0.3,2.3c-2.2,0.3-4.2,0.4-5.2,2.4
		c-0.4,0.8,0.1,2,0.2,2.7c0.1,1.4-2.5,0.8-2.7,2.7c-1.6-0.3-2.9,0.4-4.1,1.4c1.6,0.6,3,2.1,4.7,1.8c0.8-0.1,0-1.5,0.5-2.1
		c1-1.5,2-3,3.7-3.7c1.3-0.6,2.3,0.2,2.5,1.3c0.3,1.1-1.6,1.3-2,2.6c-0.3,1.1-2.2,0.6-2.9,1.7c1.5,0.9,3.4,2.2,2.6,4.1
		c-0.1,0.1-1,0.2-1.2,0c-2.2-2.5-5.1-1.3-7.2,0.4c2.5,0,5.3-0.5,7.2,1.7c0.7-1.3,1.4-1.6,2.6-2.5c1-0.7,0.5-2.4-0.6-3.1
		c-0.1-0.1-0.2-0.8,0.3-0.9c1.9-0.3,4.1,0.1,5,1.8c0.4,0.7-0.9,1.6-0.5,2.6c0.1,0.3,0.5,0.4,0.6,0.7c0.3,0.7-0.5,1.2-0.4,2
		c0.3,1.6,1.7,0.4,2.4,1.4c0.1,0.2,0,0.6,0,1c-0.6-0.5-1.2-1.2-2-1c-1,0.3-1.3,1.7-0.3,1.8c1.2,0.1,1.4,1.2,2.3,1
		c2.9-0.6,0.7-3.1-0.1-5c-0.2-0.5,0.9-0.9,0.4-1.6c-0.2-0.3-1.6,0.2-1.1-0.6c0.4-0.8,1.4-1.5,0.4-2.5c-0.1-0.1-0.5,0-0.6-0.1
		c-0.4-0.8,0.4-1.9-0.4-2.6c1.3,0,2.7,0.4,3.6-0.5c0.8-0.8-1.4-1-0.8-1.9c0.3-0.4,0.6-1,0.5-1.4c-0.1-0.4-0.6-1-1.3-0.7
		c-0.1-1.5,0.4-2.8,1.7-3.3c1.5-0.6,3.3,0.4,4.7-0.5c1.5-1.1,1.6-1,3.1-2c0.3-0.1,0.3-1.2-0.4-1.3c-1.5-0.4-1.1,0.3-2.4,0.8
		c-1.2,0.5-2.7-0.8-2.8-2.2c0-0.5,0.1-1.4,0.5-2c-1.8,0.4-2.5,1.6-3.7,2.7c-0.9-1.5-2-3.2-3.2-3.8c-1.7-0.7-3.9-0.6-5.7-1.7
		c-0.9,1.6,0.1,2.9,0.3,4.5c-1.4-0.1-2.7,0-3.7,1C80.2,74.6,80.2,74.5,80.2,74.4L80.2,74.4z"/>
	<path class="st0" d="M117.6,95.9c0.2-0.5-0.5-1-0.2-1.2c1.2-0.8,2-1.8,2.1-2.8c0.2-3-1-5.8-0.4-8.9c-0.2,0.5,0.4,0.9,0.3,1.4
		c0.8-0.6,1.9-0.9,2.3,0c0.3,0.8,0,1.8,0.1,2.7c0,0.2,0.3,0.4,0.6,0.3c0,0.4,0,0.9,0,1.4c1.3-0.7,0.6-2.3,1.3-2.8
		c1.1-0.9,1.7,1.1,1.5,2.5c1.1-0.9,0.3-2.5,1.1-3.3c0.9-0.9,2.3-0.2,3.4,0.8c0,0,0.3-0.3,0.2-0.6c0.9-0.1,1.9,0.3,1.9,1
		c0,1.2-1.4,2.4-0.7,3.7c1,1.8,0.6,3.6,0,5c-0.2,0.5-1.8,0.6-2.7,0.9c-0.2,0.1-0.3,0.8-0.4,0.8c-1.4,0.8-2.4,0.5-3.4,2.1
		c-0.1,0.2-0.9,0.2-1.2,0c-1.3-0.8,0.9-2.2-0.1-2.8c-0.8-0.5-1.4,1.2-2.3,0.8c-0.8-0.3-0.9-1.4-1.1-2.3c0.2,0,0.5,0,0.6,0
		c0.1-0.1,0.1-0.5,0-0.6c-0.2-0.1-0.8-0.2-0.9,0c-0.5,0.8-0.8,1.8-1.3,2.5c-0.4,0.7-0.7-0.6-1.2-0.9
		C117.2,95.7,117.5,95.8,117.6,95.9L117.6,95.9z"/>
	<path class="st0" d="M82.7,96.1c-0.3,0.5-0.7,1.2-0.4,1.7c0.1,0.3,0.1,0.7,0.4,0.9c0.4,0.2,0.9,0.2,1.3,0.4c0,0,0,0.2,0,0.3
		c0.1,0,0.2,0.1,0.3,0.1c0.4,0,0.6-0.5,0.4-0.7c-0.3-0.3-0.8-0.6-1-0.8c-0.4-0.5,0.1-1.5-0.3-2.1c0-0.1-0.4-0.1-0.6,0
		C82.8,95.9,82.7,96,82.7,96.1L82.7,96.1z"/>
	<path class="st0" d="M83.8,103.6c0.2,0.2,0.6,0.6,0.9,0.3c1-0.7,2.3-0.7,3-1.7c0.3-0.4,0.5-1,0.3-1.5c-0.1-0.4-0.6-0.4-0.9-0.1
		c0,0,0,0.3,0,0.3c-0.8,0.1-1.8-0.2-2.1,0.6c-0.2,0.7-0.6,1.1-1.3,1.4C83.7,102.9,83.6,103.4,83.8,103.6L83.8,103.6z"/>
	<path class="st3" d="M87,82.8c-0.4-0.1-0.5,0.2-0.8,0.3c0.3,0.8-0.4,1.8,0.2,2.3c0.3,0.2,0.7,0.3,1.1,0.5c0.5,0.3,0.9-0.1,0.9-0.6
		c0-1.1,1.2-2,0.4-2.8c-0.4-0.4-1.6-1.1-2.3-0.3L87,82.8L87,82.8z"/>
	<path class="st4" d="M154.7,76.7c0,0.3-0.1,0.6-0.3,0.7c-0.5,0.2-1.1,0.3-1.7,0.1c-1.1-0.4-2-1-3.1-1.3c-1.8-0.5-3.3-1.7-5.1-2.2
		c-4.1-1.1-8,0.8-11.9,2c3.2-0.3,6.4-0.6,9.5,0.1c2.1,0.5,3.7,2,5.7,2.5c2.5,0.7,4.9,1,7.5,1.1c0.7,0,1.1,0.6,1.7,0.9
		c0.7,0.4,1.7,0.3,2.2-0.3c0.3-0.5-0.3-0.7-0.5-1c-0.2-0.5,0.8-0.9,1-1.5L154.7,76.7L154.7,76.7z"/>
	<path class="st0" d="M91.7,89.1c0.5-0.1,0.9,0,1,0.5c0,0.2-0.3,0.6-0.6,0.4c-0.2-0.1-0.8-0.2-0.5-0.6
		C91.7,89.4,91.9,89.4,91.7,89.1L91.7,89.1z"/>
	<path class="st0" d="M92.6,101c-1.2,0.9-2.8,1-3.5,2.1c-0.2,0.4-0.8,1-0.6,1.8c0.1,0.3-0.5,0.7-0.7,1.2c-0.1,0.2-0.1,0.7,0,0.8
		c0.3,0.2,0.9,0.2,1.1,0c1-0.8,1.3-2,1.1-3.2c0.6,0.1,0.7,0.9,0.7,1.4c0.4-0.7,0.6-1.7,1.3-1.9c0.7-0.2,1.4-0.5,1.8-1.2
		C94.1,101.1,93.2,100.5,92.6,101L92.6,101z"/>
	<path class="st0" d="M53.8,108.6c-0.5-2.3-4.6,0.3-6.8,0.7c0.4,1.3,1.3,2.5,1.5,3.9c0.1,0.6,1.3-0.1,1.9-0.3c1-0.3,2-0.1,2.7-0.1
		c0.2-0.6,0-1.3,0.2-1.8C53.6,110.3,54,109.4,53.8,108.6L53.8,108.6z"/>
	<path class="st5" d="M78.3,132.9c0,0-0.1,0-0.2,0c0.3-0.7,0.9-0.4,1.4-0.5c0,0.1,0,0.2,0,0.3c0.1,0.2,0.4,0.2,0.5,0.1
		c0.4-0.5,1-0.9,1.3-0.8c0.7,0.2,1.3,0.5,2.1,0.5c0.2,0,0.4,0.2,0.7,0.3c0.3,0.1,0.6-0.2,0.8-0.2c0.5,0,0.6,0.7,1.2,0.8
		c1,0,1.3-1.1,1.9-1.7c0,0.1,0.1,0.3,0.1,0.3c0.9,0,1.4-0.9,2.3-1.1c0.2,0,0.1,0.2,0.1,0.4c0.3,0,0.7-0.3,0.8-0.5
		c0.6-1.3,0.8-2.7,1.5-4c0.2-0.3,0.4,0.4,0.5,0.6c0.1,0.9,0,1.9,0.1,2.8c0.6-0.6,1.5-1.2,1.8-2.1c0.2-0.6,0-1.4,0.3-2
		c0.2-0.3,0.5-0.6,0.8-0.9c0,0.7,0.7,1.4,0.5,2.2c0.6,0,1.1-0.7,1.7-0.5c0,0,0,0.2,0,0.3c2-0.8,2.2-3.1,3.6-4.6
		c0.1,1.1-1.1,2.4-0.2,2.9c0.3,0.2,1.2,0,1.8-0.5c0,0.7-0.3,1.4-0.1,2.1c0.3-0.3,0.6-0.2,1-0.2c-0.4,1-0.3,2.1-0.7,3.1
		c0.7-0.5,0.7-1.5,1.5-2.1c1-0.6,2.1-0.5,3-1c0,1.2-0.6,2.2-0.8,3.2c2.5-0.8,5.1-0.4,7.6-1c1,1.1,2.2-0.5,3.1-0.9
		c0.3-0.1-0.6,0.3,0,0.2c0.6-0.1,1.2-0.5,1.9-0.6c0,0.4,0,0.8,0,1.2c1-1.3,2.3-2.4,3.7-3.2c-0.5,1.1-1.2,2.1-1.2,3.4
		c0.5-0.1,1-0.3,1.2-0.8c0.1,0.4-0.2,0.6-0.3,1c0.4-0.3,1-0.3,1.2-0.9c0,0.8,0,1.5,0.1,2.3c0.6-1.1,1.4-2,2.4-2.7
		c-0.5,0.9-0.6,2-0.6,2.9c0,0.5,0.9,0.5,1.3,1c0.3-0.5,0.5-1.1,0.8-1.6c0.9-1.5,1.8-2.9,2.2-4.7c0,0,0.5-0.1,0.7,0
		c0.7,0.7-0.1,1.6,0,2.4c1.2-0.6,2-1.9,3.1-2.7c-0.7,1-1.7,2-1.6,3.4c0.3-0.2,0.6-0.5,0.8-0.4c0.2,0-0.1,0.8,0.3,0.5
		c0.2-0.1,0.5-0.2,0.7-0.4c0,0.2,0,0.4,0,0.7c0.4-0.4,1-0.3,1.5-0.4c0.2,0,0.1,0.5,0.1,0.8c0.6-0.8,0.9-1.9,1.7-2.5
		c-0.1,0.6,0.2,1.1,0.1,1.7c0.7-0.4,1.2-1.1,1.9-1.5c0,1.2-1.1,2.2-0.5,3.4c0.4-0.3,0.8-0.6,1.2-0.8c0,0,0.2,0.2,0.3,0.3
		c0.4-0.6,0.8-1.2,1.5-1.5c0.2,1,0.2,2.1,0.5,3.1c0.1,0.4,0,1.1,0,1.5c0,0.4-0.5,0.7-0.6,0.7c-3.3,1.3-6.9,0.2-10.3,0.2
		c-1,0-2.2-0.4-3.2-0.2c-1,0.2-2.5,0.4-2.6,1.9c0,0.3-0.8,0.3-1.2,0.8c-0.2-0.4-0.4-1-0.8-0.6c-0.5,0.5-0.5,1.7-1,1.8
		c-1.1,0.1,0.3-2.1-0.4-2.5c-1.3-0.8-3.5,0.4-4.7-1c-1.9,0-4,0-5.2,1.6c0,0-0.5,0.3-0.7,0.2c-0.5-0.3-1-0.3-1.1,0
		c-0.4,0.7-0.9,1.9-1.6,1.5c-0.6-0.4-0.9-1.3-1.7-1.5c-0.9-0.1-1.6,0.6-2.5,0.4c0.1-0.4-0.1-0.7-0.1-1c-0.6,0.1-1.2-0.1-1.2-0.8
		c-0.7,0-0.8,0.9-1.3,1.3c-0.1,0.1-0.6,0-0.7,0.1c-0.4,0.7-0.7,1.4-1.2,2.1c-0.1,0.1,0,0.4,0,0.6c-0.1,0.1-0.4,0.1-0.4,0
		c-0.4-0.8,0.4-2-0.4-2.4c-1.1-0.5-2.6-0.7-3.6,0.1c-0.8,0.8-1.6,2-1.8,3.3c0.1-0.7-0.4-1.4-0.1-2c0.2-0.4,0.2-0.9,0.3-1.4
		c-0.5,0-1,0.1-1.4,0c0,0,0-0.3,0-0.4c-1.1,1.3-2.6,2.2-3.1,3.9c-0.2-1.5,0.3-2.7,0.9-4.1c-1.3,0.9-2.4,1.9-3.5,3
		c-0.2,0.3-0.9,0-1.1,0.5c0-0.1,0-0.2,0-0.3c-0.6-0.4-1.3-0.3-2-0.6c-0.5-0.2-1.4,0.5-2.1,0.3c-0.1,0-0.2-0.4-0.3-0.4
		c-1,0.1-2,1.2-2.8,0.8c-1-0.5-2.5,0.3-3.6,0c0-0.2,0-0.3-0.2-0.3c-0.1,0-0.2,0-0.3,0c-0.1,0,0-0.2,0-0.2c-0.4-0.2-0.8,0.2-1.2,0.1
		c0.4-0.9,0.2-1.5-0.8-1.5c0-0.5,0.1-1.1-0.1-1.5c-0.1-0.3-0.3-0.5-0.8-0.4c-0.1,0-0.2-0.1-0.1-0.3c0.3-0.3,0.8-0.3,1.2-0.5
		c0,0.2-0.1,0.6,0.1,0.6c0.7-0.1,2-1.3,2.3-0.1c0.6-0.3,0.8-1.1,1.5-1.4L78.3,132.9L78.3,132.9z"/>
	<path class="st6" d="M78.3,132.9c0,0-0.1,0-0.2,0c0.3-0.7,0.9-0.4,1.4-0.5c0,0.1,0,0.2,0,0.3c0.1,0.2,0.4,0.2,0.5,0.1
		c0.4-0.5,1-0.9,1.3-0.8c0.7,0.2,1.3,0.5,2.1,0.5c0.2,0,0.4,0.2,0.7,0.3c0.3,0.1,0.6-0.2,0.8-0.2c0.5,0,0.6,0.7,1.2,0.8
		c1,0,1.3-1.1,1.9-1.7c0,0.1,0.1,0.3,0.1,0.3c0.9,0,1.4-0.9,2.3-1.1c0.2,0,0.1,0.2,0.1,0.4c0.3,0,0.7-0.3,0.8-0.5
		c0.6-1.3,0.8-2.7,1.5-4c0.2-0.3,0.4,0.4,0.5,0.6c0.1,0.9,0,1.9,0.1,2.8c0.6-0.6,1.5-1.2,1.8-2.1c0.2-0.6,0-1.4,0.3-2
		c0.2-0.3,0.5-0.6,0.8-0.9c0,0.7,0.7,1.4,0.5,2.2c0.6,0,1.1-0.7,1.7-0.5c0,0,0,0.2,0,0.3c2-0.8,2.2-3.1,3.6-4.6
		c0.1,1.1-1.1,2.4-0.2,2.9c0.3,0.2,1.2,0,1.8-0.5c0,0.7-0.3,1.4-0.1,2.1c0.3-0.3,0.6-0.2,1-0.2c-0.4,1-0.3,2.1-0.7,3.1
		c0.7-0.5,0.7-1.5,1.5-2.1c1-0.6,2.1-0.5,3-1c0,1.2-0.6,2.2-0.8,3.2c2.5-0.8,5.1-0.4,7.6-1c1,1.1,2.2-0.5,3.1-0.9
		c0.3-0.1-0.6,0.3,0,0.2c0.6-0.1,1.2-0.5,1.9-0.6c0,0.4,0,0.8,0,1.2c1-1.3,2.3-2.4,3.7-3.2c-0.5,1.1-1.2,2.1-1.2,3.4
		c0.5-0.1,1-0.3,1.2-0.8c0.1,0.4-0.2,0.6-0.3,1c0.4-0.3,1-0.3,1.2-0.9c0,0.8,0,1.5,0.1,2.3c0.6-1.1,1.4-2,2.4-2.7
		c-0.5,0.9-0.6,2-0.6,2.9c0,0.5,0.9,0.5,1.3,1c0.3-0.5,0.5-1.1,0.8-1.6c0.9-1.5,1.8-2.9,2.2-4.7c0,0,0.5-0.1,0.7,0
		c0.7,0.7-0.1,1.6,0,2.4c1.2-0.6,2-1.9,3.1-2.7c-0.7,1-1.7,2-1.6,3.4c0.3-0.2,0.6-0.5,0.8-0.4c0.2,0-0.1,0.8,0.3,0.5
		c0.2-0.1,0.5-0.2,0.7-0.4c0,0.2,0,0.4,0,0.7c0.4-0.4,1-0.3,1.5-0.4c0.2,0,0.1,0.5,0.1,0.8c0.6-0.8,0.9-1.9,1.7-2.5
		c-0.1,0.6,0.2,1.1,0.1,1.7c0.7-0.4,1.2-1.1,1.9-1.5c0,1.2-1.1,2.2-0.5,3.4c0.4-0.3,0.8-0.6,1.2-0.8c0,0,0.2,0.2,0.3,0.3
		c0.4-0.6,0.8-1.2,1.5-1.5c0.2,1,0.2,2.1,0.5,3.1c0.1,0.4,0,1.1,0,1.5c0,0.4-0.5,0.7-0.6,0.7c-3.3,1.3-6.9,0.2-10.3,0.2
		c-1,0-2.2-0.4-3.2-0.2c-1,0.2-2.5,0.4-2.6,1.9c0,0.3-0.8,0.3-1.2,0.8c-0.2-0.4-0.4-1-0.8-0.6c-0.5,0.5-0.5,1.7-1,1.8
		c-1.1,0.1,0.3-2.1-0.4-2.5c-1.3-0.8-3.5,0.4-4.7-1c-1.9,0-4,0-5.2,1.6c0,0-0.5,0.3-0.7,0.2c-0.5-0.3-1-0.3-1.1,0
		c-0.4,0.7-0.9,1.9-1.6,1.5c-0.6-0.4-0.9-1.3-1.7-1.5c-0.9-0.1-1.6,0.6-2.5,0.4c0.1-0.4-0.1-0.7-0.1-1c-0.6,0.1-1.2-0.1-1.2-0.8
		c-0.7,0-0.8,0.9-1.3,1.3c-0.1,0.1-0.6,0-0.7,0.1c-0.4,0.7-0.7,1.4-1.2,2.1c-0.1,0.1,0,0.4,0,0.6c-0.1,0.1-0.4,0.1-0.4,0
		c-0.4-0.8,0.4-2-0.4-2.4c-1.1-0.5-2.6-0.7-3.6,0.1c-0.8,0.8-1.6,2-1.8,3.3c0.1-0.7-0.4-1.4-0.1-2c0.2-0.4,0.2-0.9,0.3-1.4
		c-0.5,0-1,0.1-1.4,0c0,0,0-0.3,0-0.4c-1.1,1.3-2.6,2.2-3.1,3.9c-0.2-1.5,0.3-2.7,0.9-4.1c-1.3,0.9-2.4,1.9-3.5,3
		c-0.2,0.3-0.9,0-1.1,0.5c0-0.1,0-0.2,0-0.3c-0.6-0.4-1.3-0.3-2-0.6c-0.5-0.2-1.4,0.5-2.1,0.3c-0.1,0-0.2-0.4-0.3-0.4
		c-1,0.1-2,1.2-2.8,0.8c-1-0.5-2.5,0.3-3.6,0c0-0.2,0-0.3-0.2-0.3c-0.1,0-0.2,0-0.3,0c-0.1,0,0-0.2,0-0.2c-0.4-0.2-0.8,0.2-1.2,0.1
		c0.4-0.9,0.2-1.5-0.8-1.5c0-0.5,0.1-1.1-0.1-1.5c-0.1-0.3-0.3-0.5-0.8-0.4c-0.1,0-0.2-0.1-0.1-0.3c0.3-0.3,0.8-0.3,1.2-0.5
		c0,0.2-0.1,0.6,0.1,0.6c0.7-0.1,2-1.3,2.3-0.1c0.6-0.3,0.8-1.1,1.5-1.4"/>
	<path class="st5" d="M73.2,134.9c-0.1-0.9,0.4-1.8,0-2.5c0-0.1-0.7,0-0.9-0.1c-0.4-0.4-0.9-0.8-0.7-1.5c-0.5,0-1,0.3-1.5,0.3
		c0-0.1,0-0.3,0-0.3c-0.1-0.1-0.3-0.2-0.5-0.2c-0.8,0.3-2.1,1.6-2.5,0.3c-0.7,0.6-1.6,0.9-2.2,1.5c0-0.4-0.3-0.7-0.5-1
		c-0.1-0.1,0.1-0.2,0.1-0.3c-0.1-0.8-1,0-1.3-0.5c0.3-0.1,0.1-0.4,0.1-0.7c-0.5,0.3-1.1,0-1-0.3c0.3-1.2,1.4-2.2,1.4-3.4
		c0-0.1-0.5,0.2-0.6,0.4c-0.4,0.7-1,1.3-1.5,1.9c-0.9,0.9-1.6,2-2.8,2.7c0,0,0,0.4-0.2,0.6c-0.4,0.3-0.4-0.2-0.4-0.3
		c-0.2-0.6,0.1-1.2,0-1.8c-0.1-0.5-0.7-0.7-0.8-1.2c-0.4,1.1-0.3,2.5-1,3.3c-0.2,0.3-0.8-0.4-0.5-0.9c0,0,0.2,0,0.3-0.2
		c0.1-0.4,0-1.4-0.6-1.1c-0.3,0.2-0.3,0.7-0.4,1.1c-0.2,0.7-0.8,1.3-1.6,1.5c0-0.3-0.3-0.4-0.5-0.4c-1.1-0.3-1.6,0.4-2.3,1.3
		c-0.1,0.1-0.5-0.2-0.5-0.1c-0.5,1-0.3,2.3,0.2,3.1c0.3,0.4,1.3,0,1.9,0c1.5,0,2.9-0.3,4.6-0.2c0.5,0,1,0,1.6-0.1
		c-0.1,0.3,0.4,0,0.3,0.3c2.2,0,4.4,0,6.6,0c1.5,1.7,3.5,1,5.4,0.7c0.4-0.1,0.2-0.8,0.5-0.8c0.7,0,1.5,0.2,2-0.4
		c0.4-0.5-0.2-0.9,0-1.5c0.1-0.2,0.1-0.4,0.1-0.7c-0.6,0-0.1-0.7-0.5-0.9L73.2,134.9L73.2,134.9z"/>
	<path class="st6" d="M73.2,134.9c-0.1-0.9,0.4-1.8,0-2.5c0-0.1-0.7,0-0.9-0.1c-0.4-0.4-0.9-0.8-0.7-1.5c-0.5,0-1,0.3-1.5,0.3
		c0-0.1,0-0.3,0-0.3c-0.1-0.1-0.3-0.2-0.5-0.2c-0.8,0.3-2.1,1.6-2.5,0.3c-0.7,0.6-1.6,0.9-2.2,1.5c0-0.4-0.3-0.7-0.5-1
		c-0.1-0.1,0.1-0.2,0.1-0.3c-0.1-0.8-1,0-1.3-0.5c0.3-0.1,0.1-0.4,0.1-0.7c-0.5,0.3-1.1,0-1-0.3c0.3-1.2,1.4-2.2,1.4-3.4
		c0-0.1-0.5,0.2-0.6,0.4c-0.4,0.7-1,1.3-1.5,1.9c-0.9,0.9-1.6,2-2.8,2.7c0,0,0,0.4-0.2,0.6c-0.4,0.3-0.4-0.2-0.4-0.3
		c-0.2-0.6,0.1-1.2,0-1.8c-0.1-0.5-0.7-0.7-0.8-1.2c-0.4,1.1-0.3,2.5-1,3.3c-0.2,0.3-0.8-0.4-0.5-0.9c0,0,0.2,0,0.3-0.2
		c0.1-0.4,0-1.4-0.6-1.1c-0.3,0.2-0.3,0.7-0.4,1.1c-0.2,0.7-0.8,1.3-1.6,1.5c0-0.3-0.3-0.4-0.5-0.4c-1.1-0.3-1.6,0.4-2.3,1.3
		c-0.1,0.1-0.5-0.2-0.5-0.1c-0.5,1-0.3,2.3,0.2,3.1c0.3,0.4,1.3,0,1.9,0c1.5,0,2.9-0.3,4.6-0.2c0.5,0,1,0,1.6-0.1
		c-0.1,0.3,0.4,0,0.3,0.3c2.2,0,4.4,0,6.6,0c1.5,1.7,3.5,1,5.4,0.7c0.4-0.1,0.2-0.8,0.5-0.8c0.7,0,1.5,0.2,2-0.4
		c0.4-0.5-0.2-0.9,0-1.5c0.1-0.2,0.1-0.4,0.1-0.7c-0.6,0-0.1-0.7-0.5-0.9"/>
	<path class="st7" d="M53.8,143.7c0.1-0.6,1.4-0.4,1.8-1.2c0.3,0.4,0.7,0,0.8,0c0.6-0.6,0.8-1.4,1.8-1.1c0.6,0.2,0.3,0.9,0.7,1.3
		c0.3,0.3,0.9-0.1,1.3,0.1c0.1,0,0.1,0.5,0.1,0.4c0.6-0.5,0.9-1.4,1.6-1.7c0.6-0.2,1.4,0,2-0.4c0.3,0.7,0.8,0.3,1.4,0.3
		c0,0.2,0.1,0.3,0.1,0.3c0.5-0.4,0.7-1.2,1.6-1.1c0.8,0.1,0.4,0.9,0.5,1.5c0.3,0,0.8,0,1,0.2c0.8,0.9,0.8,1.7,1.8,2.4
		c0.8,0.5,0.5,1.9-0.1,2.5c-0.6,0.6-1.7,0.4-2.6,0.4c0-0.5-0.4-0.7-0.7-1c0.5,0.4-0.1,0.6-0.2,0.8c-1,0.9-3.2,0.5-3,2.5
		c-1.1-0.3-2.5,0.4-3.1-1c0,0-0.4,0-0.6,0c-0.7-0.6-1.2-1.3-1.6-2.1c-0.2-0.4,0.5-1.2,0.2-1.3c-0.7-0.4-0.5,1-1.1,1.2
		c-0.7,0.2-0.9-0.7-0.9-1.2C55.4,145.1,53.6,144.8,53.8,143.7L53.8,143.7z"/>
	<path class="st7" d="M74.2,142.1c0.8,0.1,1.6-0.3,2.5-0.1c0.2,0,0.4-0.4,0.7-0.5c0.4-0.2,0.9,0,1.3-0.1c1-0.2,1.8-1,2.7-1.4
		c0.4-0.2,0.8,0.2,1.2-0.2c0,0.3,0.2,0.5,0.3,0.5c0.8,0,1.8-0.6,2.3-0.2c0.8,0.7,1.8,0.8,2.6,1.2c0.6,0.3,0.9,1,1.7,0.7
		c-0.1,1.2,0.6,2.5,0,3.3c-0.6,0.9-2,1.1-3,1.4c-1.5,0.4-2.8,1.2-4.3,1.7c-0.5,0.1-1,0-1.4-0.5c0.1,0.4-0.4,0.2-0.5,0.5
		c-2.1-0.6-4.1-1.7-6-2.6c-0.2-0.1-0.6,0-0.8-0.2c-0.3-0.6,0-1.2-0.5-1.9c-0.1-0.2,0.4-0.4,0.6-0.6c0.1-0.1,0.1-0.4-0.1-0.5
		C73.9,142.4,73.8,142.1,74.2,142.1L74.2,142.1z"/>
	<path class="st4" d="M30.9,85.7c0.9-0.2,1.9,0.2,2.7,0.4c0.1,0,0.1,0.7-0.3,0.9c-0.8,0.2-1.6,0-2.4-0.4
		C30.5,86.5,31.4,86,30.9,85.7L30.9,85.7z"/>
	<path class="st4" d="M32.2,83.3c1,0,2.6,0.8,1.8,1.5c-0.6,0.6-2.2,0.1-2.5-1.5C31.8,83.3,32,83.3,32.2,83.3L32.2,83.3z"/>
	<path class="st4" d="M32.9,78.2c0.5,0.6,1.9,0,1.9,1c0,0.6-0.8,0.3-1.3,0.3c0.3,0.7,0.7,1.3,1,2c-0.5,0-1.2-0.1-1.7,0.1
		c-0.3,0.2,0.3,0.6,0.3,0.9c-0.7,0-1.5,0.2-1.9-0.4c-0.5-0.7,0-1.7,0.4-2.2C32.1,79.4,33.1,79.2,32.9,78.2L32.9,78.2z"/>
	<path class="st4" d="M35.6,74.4c1.4,0.2,2.4,0.7,3.7,0c-0.5,0.7-1,1.6-2,1.3c0,0.8-0.1,2.8-1.3,2.2c-1-0.5,0.8-1.8,0.1-2.4
		c-0.3-0.3-1-0.6-1.6-0.8c0.2-0.7,0.8-0.7,1.4-0.7C35.9,74.2,35.7,74.3,35.6,74.4L35.6,74.4z"/>
	<path class="st4" d="M42.4,71.8c-0.4,0.1-0.6,0.6-1,0.9c-0.3,0.2-0.6-0.2-0.6-0.2c-0.9,0.3-1.9,1.3-3.1,0.6
		c0.2-0.2,0.4-0.3,0.3-0.7c0.3,0,0.8,0.1,0.9,0c0.8-1.3,1.9-1.7,3.1-1.8c0.6,0,0.4,1.3,1,1.9C42.9,72.1,42.6,71.7,42.4,71.8
		L42.4,71.8z"/>
	<path class="st4" d="M39.1,68.3c-0.3,1.2-1.6,1.1-2.3,1.9c-0.6,0.7-2.4-0.4-1.7-1.5c1-1.5,3.1-0.2,4.6-0.7
		C39.8,68.7,39.2,68.2,39.1,68.3L39.1,68.3z"/>
	<path class="st4" d="M41,75.5c0.4-0.9,2.6-0.9,2.5,0.2C43.5,76.7,40.2,77.3,41,75.5L41,75.5z"/>
	<path class="st7" d="M80.2,154.1c2.9-0.9,5.5-2,7.5-4.4c0.5-0.6,1.6-0.5,2.2-0.9c1.3-0.9,1-3.1,2-4.1c1.1-1.1,2-2.3,3.3-3.1
		c1.1-0.7,0.6,1.6,1.6,1.7c0.3,0,1.1-0.3,1.2-0.5c0.2-1,0-2.1,0.9-2.6c0.4-0.2,1,0.4,1.6,0.2c0.1,1.1-0.4,2.4,0.4,3.3
		c0.2,0.2,0.7-0.3,0.9-0.2c0.8,0.3,1.6,1.2,1.4,2.3c0.9,0,1.1-1.7,1.6-1.2c1.2,1.1,2.5,1.1,3.9,1.3c0.4,0.1,0.9,0.6,1,1.3
		c-2,0.1-3.5,1.4-4.4,3c2.9,1.7,4.1-3,7.1-3c0.1,0,0.4,0.4,0.3,0.6c-0.1,0.4-0.5,0.8-1,1c-1.5,0.5-3.7,1-3.7,3.1
		c-0.4,0-0.7,0.1-1,0.3c-0.5,0.6,0.8,1.4,0.2,1.5c-1,0.3-1.7,0.7-2.7,1.1c-0.3,0.2-1-0.1-1.2,0.1c-0.6,0.8-0.5,2.2-1.5,2.5
		c-0.3,0.1-0.5,0.6-1,0.4c0,0.2,0,0.4,0,0.7c-0.1,0.2-0.3,0.4-0.6,0.3c0.8,1-0.6,0.8-1,1.4c-0.9-1.7-1.9-0.9-3.4-0.7
		c0-0.7,0-1.4,0-2.1c-0.3,1.6-2,1.8-3,1.8c-1,0,0.5-1.8-0.4-2c-1.1-0.3-2.1,0.8-3.1,1.3c-1.1,0.5-2.6,0.9-3.9,0.7
		c-0.4-0.1-0.1-1.1,0.3-1.5c0.8-0.5,1.4-1,2-1.8c-1.1-0.7-3.1,0.3-2.4-1.7c-1.1,0-2.3,0.1-3.1,1c0.1-0.3-0.2-0.4-0.2-0.7
		c-0.2-0.5,0.7-0.7,0.6-1.3c-0.8,0.3-1.8,0.9-2.6,0.5c-0.3-0.1,0.5-0.4,0.3-0.9C80.2,153.6,80.2,153.9,80.2,154.1L80.2,154.1z"/>
	<path class="st5" d="M109.9,158.9c0.7,0,0.3-0.4,0.3-0.7c-1.1,0.6-2.4,0.7-3.4,1.4c0.3-0.7,0.5-1.7,1.1-1.9c1.8-0.6,1.8-3,3.7-3.2
		c-0.1,0.3,0.1,0.6,0.3,0.6c1.7,0,1.6-2.3,3-2.6c-0.1,0.6,0.5,1.1,0.3,1.7c1.2-0.5,2.1-1.3,2.6-2.5c0.2-0.3,0-0.9,0.1-1.3
		c1-1.7,2.6-2.1,3-4.1c0.1-0.6,0.9-0.5,1-1c0,1.4-0.8,2.5-1.4,3.7c1.9-0.7,2.1-2.8,3.4-4.1c0,0.6-0.1,1.2,0.3,1.7
		c0.9-1.2,1.8-2.1,1.9-3.7c0-0.6,1.3-0.9,1.5-1.7c-0.3,1.2-0.1,2.2,0,3.4c0.3-0.8,0.1-1.8,1-2.4c0.2,1,0.3,2.1-0.3,3
		c0.6-0.3,0.9-1.7,2.1-0.7c-1.9,1.6-3,3.9-4.5,5.8c0.2-0.4,0.6-0.4,1-0.3c-0.4,2.1-1.9,3.5-3.4,4.8c0-0.3,0-0.6,0-1
		c-1,0.5-1.7,1.5-2.7,2c0-0.3,0-0.7,0-1c-1.5,1-3.3,1.6-4.8,2.7c0-0.2,0-0.4,0-0.7c-0.8,0.6-1.9,0.7-2.7,1.4c0-0.3,0-0.7,0-1
		c-0.9,0.8-2,1.2-3,1.7c0-0.2,0-0.4,0-0.7c-1,1.1-2.5,0.7-3.8,1c0-0.1,0-0.2,0-0.3H109.9L109.9,158.9z"/>
	<path class="st6" d="M109.9,158.9c0.7,0,0.3-0.4,0.3-0.7c-1.1,0.6-2.4,0.7-3.4,1.4c0.3-0.7,0.5-1.7,1.1-1.9c1.8-0.6,1.8-3,3.7-3.2
		c-0.1,0.3,0.1,0.6,0.3,0.6c1.7,0,1.6-2.3,3-2.6c-0.1,0.6,0.5,1.1,0.3,1.7c1.2-0.5,2.1-1.3,2.6-2.5c0.2-0.3,0-0.9,0.1-1.3
		c1-1.7,2.6-2.1,3-4.1c0.1-0.6,0.9-0.5,1-1c0,1.4-0.8,2.5-1.4,3.7c1.9-0.7,2.1-2.8,3.4-4.1c0,0.6-0.1,1.2,0.3,1.7
		c0.9-1.2,1.8-2.1,1.9-3.7c0-0.6,1.3-0.9,1.5-1.7c-0.3,1.2-0.1,2.2,0,3.4c0.3-0.8,0.1-1.8,1-2.4c0.2,1,0.3,2.1-0.3,3
		c0.6-0.3,0.9-1.7,2.1-0.7c-1.9,1.6-3,3.9-4.5,5.8c0.2-0.4,0.6-0.4,1-0.3c-0.4,2.1-1.9,3.5-3.4,4.8c0-0.3,0-0.6,0-1
		c-1,0.5-1.7,1.5-2.7,2c0-0.3,0-0.7,0-1c-1.5,1-3.3,1.6-4.8,2.7c0-0.2,0-0.4,0-0.7c-0.8,0.6-1.9,0.7-2.7,1.4c0-0.3,0-0.7,0-1
		c-0.9,0.8-2,1.2-3,1.7c0-0.2,0-0.4,0-0.7c-1,1.1-2.5,0.7-3.8,1c0-0.1,0-0.2,0-0.3"/>
	<path class="st7" d="M134.1,140.9c0-0.2,1.5-0.7,1.4-0.1c1.1-0.7-0.1-1.5,0.9-2.3c-0.1,0.6,0.6,1.1,0.3,1.7c0.5,0.2,1-0.5,1.3-0.3
		c0.2,0.3,0,0.9,0.4,1.3c0.4-0.4,1.1-0.9,1.2-0.6c0.4,0.8,1.5,1.6,2.5,1.7c0.4,0,0.5,0.5,0.4,0.9c-0.1,1-1.1,0.2-1.4,0.7
		c0.1-0.7-0.5-0.1-0.7-0.3c-1,1.3-2.2,0.8-3.4,0.3c-0.3,1.7,0.8,4.7-1.4,4.6c-0.9,0,0.4-1.2-0.1-1.8c-0.2-0.2-0.9,0-1.2-0.1
		c-0.1,0,0-0.4,0-0.6c-0.5,0.7,0.3,1.9-0.4,2.3c-2.1,1-1,3.3-2.7,4.6c-0.3-0.7-1.6-0.6-1.3-1.7c-0.3,0.6-1.1,0.4-1.3,0.2
		c-0.6-0.7-1.8-1.5-1.3-2.5c0.2-0.6,0.7-1.1,1.6-0.7c0.9,0.4,0.6,2.1,1.4,2.2c0.8,0.1,0.7-1.3,0.7-2.2c0.1,0.1,0.2,0.2,0.3,0.3
		c0.3-0.7,0.6-1.5,1.1-2c0.1-0.1,0.8,0,0.8-0.1C133.8,144.6,133.5,142.5,134.1,140.9L134.1,140.9z"/>
	<path class="st0" d="M122.3,122.7c0.3,0.4,0.9-0.5,1-1c0.1-0.9,0.3-1.7,0.3-2.5c0.9-0.6,1.4-1.6,1.7-2.6c0.1-0.2,0-0.6-0.1-0.7
		c-0.8-0.9-2.1-0.7-3.2-0.7c-0.4,0-0.7,0.4-0.9,0.8c-0.8,1.9-0.8,3.9-1.1,5.9c0.3-0.1,0.7,0,1,0L122.3,122.7L122.3,122.7z"/>
	<path class="st0" d="M117.6,126.8c0.1,0,0.3,0.1,0.4,0.1c0.5-0.2,1.1-0.4,1.4-0.9c0.3-0.3,0.7-0.7,0.5-1.1
		c-0.1-0.1-0.6,0.1-0.7-0.1c-0.1-0.1-0.1-0.3-0.1-0.4c-0.1,0-0.3,0-0.4,0c-0.2,0.1-0.3,0.3-0.4,0.5c-0.3,0.5-0.6,1-0.9,1.6
		C117.4,126.6,117.4,126.7,117.6,126.8L117.6,126.8z"/>
	<path class="st0" d="M116.9,126.7c0.2,0.2,0.5,0.6,0.4,1c-0.2,0.6-0.4,1.2-0.8,1.7c0,0.1-0.2-0.1-0.2-0.2c0-0.1-0.1-0.2-0.1-0.3
		c-0.2,0.1-0.3,0-0.4-0.1c-0.2-0.2-0.3-0.4-0.5-0.7c0,0,0-0.2,0-0.2c0.4-0.3,0.8-0.8,1.3-1c0.2-0.1,0.4,0.2,0.6,0.2L116.9,126.7
		L116.9,126.7z"/>
	<path class="st0" d="M131.1,81.2c1.5,0.3,3.1,0.3,4.6,0.9c0.1,0,0.3,0.2,0.4,0.3c0.1,0.1,0.5,0.1,0.6,0.2c0.4,0.3,0.9,0.3,1.3,0.6
		c-0.4,0.4-1.1,0.3-1.6,0.2c-0.3,0-0.5-0.2-0.8-0.5c-0.2-0.2-0.7-0.1-1.1-0.3c-0.9-0.5-2-0.7-2.9-1.1
		C131.4,81.6,131.2,81.4,131.1,81.2L131.1,81.2z"/>
	<path class="st0" d="M132.3,93.1c0-1.2-0.1-2.5,0.1-3.7c0.1-1,0.2-2,0.6-2.8c0.1,0.9,0.1,1.8,0.1,2.7c0,0.1-0.2,0.2-0.1,0.3
		c0.4,0.2,0.7-0.2,1.2-0.2c0.1,0,0.2,0.1,0.1,0.2c0.2,0,0.4,0,0.5,0c0.3,0.3,0.4,0.7,0.4,1.2c0.3-0.2,0.2-0.5,0.2-0.8
		c0.1,0,0.1,0,0.2,0c0,0.3,0.1,0.5,0.1,0.8c0,1-0.2,2-0.3,3.1c0,0,0-0.2-0.1-0.2c0-0.3,0-0.6-0.3-0.8c-0.5-0.4-0.7-0.8-1.2-1.2
		c-0.2-0.2,0.1-0.8-0.1-0.9c-0.7-0.1,0,0.7-0.2,1c-0.3,0.3-0.5-0.2-0.5-0.6c-0.6,0.6,0.1,1.6-0.6,2.2c-0.1-0.1-0.2-0.3-0.2-0.6
		c0,0,0,0,0,0.1V93.1L132.3,93.1z"/>
	<path class="st0" d="M136.3,91.5c-0.1,0.6-0.1,1.1,0,1.7C136.6,92.8,136.7,92,136.3,91.5L136.3,91.5z"/>
	<path class="st0" d="M136.9,92.6c0.3,0.4-0.2,0.9,0,1.3C137.3,93.6,137.5,92.9,136.9,92.6L136.9,92.6z"/>
	<path class="st0" d="M113.4,97c0,0,0.2,0,0.2,0c0.7-1,0-2.1,0.4-3.1c0.8,0,0.4-1.1,0.8-1.6c0,0,0.2-0.2,0.2-0.1
		c0.5,1.7,1,3.3,1.7,5c0.3,0.7,0.4,1.5,0.7,2.3c0.1,0.3,0.3,0.9,0.6,0.8c0.4-0.2,0-0.8,0-1.3c0.9,0.3,1.2,1.3,1,2.2
		c-0.1,0.3-0.5,0.6-0.6,0.7c-0.5,0.7,0,1.6,0.1,2.4c-0.7-1.1-0.7-2.3-1.2-3.4c-0.5-1.4-1.4-2.5-1.8-3.9c-0.2-0.6-0.4-1.3-0.6-1.9
		c-0.2,0.1-0.2,0.3-0.3,0.4c-0.1,0.3,0,0.7-0.1,1.1c-0.1,0.6-0.6,0.5-1.1,0.7L113.4,97L113.4,97z"/>
	<path class="st0" d="M116.8,101.8c0.1,0.5,0.5,0.9,0.5,1.4c0,0.2-0.4,0.3-0.6,0.2c-0.7-0.4-1.4-1.3-0.9-2
		C115.8,101.2,116.6,101.3,116.8,101.8L116.8,101.8z"/>
	<path class="st0" d="M120.1,102.9c0.2,0.3,0.4,0.8,0.8,0.8c0.6,0,0.6-1,0.2-1.4C120.8,101.9,120.1,102.4,120.1,102.9L120.1,102.9
		L120.1,102.9z"/>
	<path class="st0" d="M114,90.6c0,0.3,0.1,0.6,0.4,0.8c0.1-0.4,0.7-0.4,0.9-0.3c0.6,0.4,0.8,1.1,1,1.8c0-0.3,0.1-0.7,0-1
		c-0.2-0.5-0.5-1.1-1-1.4C115,90.2,114.5,90.6,114,90.6L114,90.6z"/>
	<path class="st0" d="M117.5,84c0.4,0.1,0.6,0.9,0.2,1.3c-0.3,0.4-0.8,0-1-0.5C116.6,84.1,117.3,83.8,117.5,84L117.5,84z"/>
	<path class="st0" d="M83.2,106.6c0.8,0.1,1.2,0.7,1.8,1.3c0,0.1,0,0.3,0,0.4c-0.2,0.1-0.5,0-0.6,0c-0.4,0.6,0,1.4,0.6,1.9
		c0,0,0,0.2,0,0.3c0,0.1,0.2,0.4,0.2,0.6c0,0.5,0.3,0.9,0.3,1.3c0,0.3-0.7,0.6-0.8,0.2c-0.2-0.5,0.1-1.2,0-1.7
		c0-0.6-0.8-1.1-0.9-1.8c0,0-0.1-0.1-0.2-0.2c-0.3,0.4-0.5,0.7-0.7,1.2c0,0.1-0.2,0.1-0.3,0.1c-0.8-0.3-1.6-0.4-2-1.2
		c0-0.1-0.1-0.3,0-0.3c0.6-0.1,1,0.4,1.6,0.5c0.8,0.2,0.2-1.3,0.6-1.9c0-0.2,0.4-0.1,0.3-0.4c-0.1-0.1-0.2-0.4-0.4-0.3
		c-0.4,0.2-0.8,0.5-1.1,1c0-0.2,0-0.4,0-0.5c0.5-0.6,1.1-1.2,1.7-1.9c0.2-0.2,0.4-0.1,0.6-0.3c-0.1,0.5-0.6,0.8-0.8,1.3
		c-0.1,0.2,0.2,0.3,0.5,0.3H83.2L83.2,106.6z"/>
	<path class="st0" d="M80.5,105.2c0.1,0.5-0.3,0.9-0.6,0.9c-0.1,0-0.5-0.3-0.8,0c0-0.1-0.2-0.2-0.3-0.1c-0.6,0.1-1.3,0.8-1.7,0.3
		c-0.4-0.5,0.3-0.5,0.8-0.5c0-0.1,0.1-0.2,0.1-0.3c-0.3-0.3-0.9-0.6-0.6-0.9c0.2-0.3,0.8,0.3,1,0.2c0.6-0.4,1.1,0.2,1.6,0
		c0.6-0.1,0.5-1.9,1.3-1.3C81.9,104.1,81.1,104.8,80.5,105.2c0,0.1,0,0.2,0,0.3V105.2L80.5,105.2z"/>
	<path class="st0" d="M75.1,106c0,0.3-0.1,0.6-0.4,0.7c-0.6,0.1-1-0.3-1.5-0.6c-0.3-0.2-0.7-0.7-0.4-1.1c0.4-0.4,0.9-0.3,1.3,0
		c0.5,0.4,1.3,0.9,0.9,1.7L75.1,106L75.1,106z"/>
	<path class="st0" d="M81.9,111.1c0.2,0.2,0.2,0.6,0.6,0.7c0.1,0,0.3,0,0.4-0.2c0.2-0.6-0.4-0.9-1-0.8c-0.1,0-0.1,0.1-0.2,0.2
		C81.7,111.1,81.9,111,81.9,111.1L81.9,111.1z"/>
	<path class="st0" d="M83.2,112.8c0.1,0.3,0.3,0.7,0.7,0.6c0.2,0,0.1-0.2,0.1-0.3c-0.2-0.3-0.4-0.6-0.7-0.4
		C83.2,112.7,83.2,112.8,83.2,112.8L83.2,112.8z"/>
	<path class="st0" d="M86.3,112.7c-0.1,0.3,0,0.6-0.1,0.8c0.7,0.2,1-0.4,0.8-0.9c-0.1-0.3-0.5-0.2-0.7-0.1
		C86.2,112.5,86.3,112.6,86.3,112.7L86.3,112.7z"/>
	<path class="st0" d="M72.9,100.6c0-1.1-1.1-1.7-1.5-2.5c0-0.2-0.2-0.4-0.1-0.6c0.2-0.4,0.3-0.8,0.1-1.2c-0.2-0.5-0.9-1-0.6-1.7
		c0.3,0.4,0.6,1.1,1.3,0.9c0-0.7-0.6-1-1-1.6c-0.1-0.1,0.1-0.2,0-0.4c0.1,0,0.2,0.2,0.3,0c0.4,0.7,1.2,1.1,1.9,1.3
		c1.3,0.3,2.6,0.5,3.5,1.6c0.1,0.1,0,0.4-0.1,0.4c-0.8,0.2-1.5-0.3-2.3-0.3c0,0,0,0.1,0,0.1c0,0.1-0.1,0.1-0.2,0.1
		c0,0.5,0.1,0.9,0.3,1.4c0.2,0.6-0.1,1.2-0.4,1.8c-0.3,0.5-0.9,0.3-1.4,0.3L72.9,100.6L72.9,100.6z"/>
	<path class="st0" d="M77.6,98.1c0.4,0.2,0.7,0.6,0.8,1.1c0,0.3-0.1,0.8,0,0.8c1,0.2,0.9-1.2,0.6-1.8c-0.2-0.4-0.9-0.9-1.4-0.7
		c-0.1,0.1-0.4,0.3-0.3,0.6c0,0.1,0.3,0.2,0.2,0.4V98.1L77.6,98.1z"/>
	<path class="st0" d="M77.6,70.5c-0.1,0.3-0.3,0.6-0.2,0.9c0.2,0.6,0.7,1.1,1.4,1.2c0.2,0,0.6-0.1,0.3-0.4c-0.2-0.4-0.9-0.4-1.1-0.9
		c-0.2-0.4,0.2-1,0-1.3C77.9,69.7,77.6,70.2,77.6,70.5L77.6,70.5z"/>
	<path class="st3" d="M94.9,72.7c0.3-0.4-0.1-0.9-0.6-1c-0.1,0,0.2,0,0.1-0.1c1.3,0.3,2.7,0.2,4.1,0.4c0.5,0,1,0.1,1.3,0.3
		c0.1,0.1,0,0.5-0.1,0.5c-0.8,0.2-1.4-0.4-2.2-0.4c0,0-0.2,0-0.3,0.1c-0.6,0-1.1,0.3-1.7,0.5c-0.2,0.1-0.4-0.2-0.6-0.2
		c0,0.1-0.1,0.2-0.2,0.3L94.9,72.7L94.9,72.7z"/>
	<path class="st0" d="M101.6,74.9c0.1,0.3,0.3,0.7,0.6,0.9c0.3,0.3,1.2,0.3,1.4-0.2c0.1-0.2,0.1-0.6,0-0.8c-0.4-0.7-1.4-0.3-1.7,0.3
		C101.8,75,101.7,74.9,101.6,74.9L101.6,74.9z"/>
	<path class="st0" d="M74.9,91.4c0,0.5-0.8,0.6-1,0.3c-0.3-0.5-1.1-1.2-0.5-1.5c0.6-0.4,1.4,0.3,1.7,0.9c0.2,0.3-0.2,0.4-0.5,0.6
		L74.9,91.4L74.9,91.4z"/>
	<path class="st0" d="M72.9,88.1c0-0.1,0-0.3-0.2-0.3c-0.7-0.1-1.3-0.3-1.9-0.7c0,0,0-0.3,0.1-0.4c0.9-0.5,1.7,0.2,2.3,0.8
		C73.6,87.7,73.2,87.9,72.9,88.1L72.9,88.1z"/>
	<path class="st0" d="M71.1,84.7c-0.2-0.5-0.7-0.8-1-1.2c-0.1-0.2,0.3-0.4,0.4-0.3c0.5,0.3,1.3,0.9,0.9,1.6
		C71.4,84.8,71.2,84.6,71.1,84.7L71.1,84.7z"/>
	<path class="st3" d="M88.8,81.1C88.8,81.1,88.7,81.2,88.8,81.1c0.5,0.2,0.8,0.7,1.3,1c0.3-0.6-0.3-1.2-0.8-1.5
		C89,80.6,88.6,80.8,88.8,81.1L88.8,81.1z"/>
	<path class="st3" d="M89.9,79.9c-0.1,0.4,0.3,0.7,0.7,0.9c0.3,0.2,0.5-0.3,0.4-0.6C90.9,79.9,90.1,79.4,89.9,79.9L89.9,79.9z"/>
	<path class="st0" d="M49.6,113.9c1,0,2-0.4,2.9,0c0,0,0,0.3,0,0.3C51.6,114.2,51.1,114.5,49.6,113.9L49.6,113.9z"/>
	<path class="st0" d="M60.3,102.9c-0.1,0.5,0.2,1,0.5,1.4c0.2,0.3,0.7,0.4,0.9,0c0.3-0.6,0.2-1.3,0-2c-0.2,0.2-0.3,0.6-0.6,0.5
		c-0.2-0.1-0.2-0.6-0.4-0.5C60.4,102.3,60.3,102.7,60.3,102.9L60.3,102.9z"/>
	<path class="st0" d="M47.4,93.4c-0.1,0-0.1,0.3-0.1,0.4c0.6,0,1.2-0.1,1.9-0.1c0.2,0,0.3-0.4,0.6-0.6c0.3-0.1,0.6,0.1,0.9-0.1
		c0.1-0.1-0.1-0.3,0.1-0.4C49.6,92.1,48.6,93.2,47.4,93.4L47.4,93.4z"/>
	<path class="st0" d="M51.7,92.8c0.2,0.1,0.1,0.4,0.2,0.4c0.5,0.3,1.1,0.3,1.6,0.2c0.1,0,0.1-0.4,0-0.5C53,92.7,52.3,92.7,51.7,92.8
		L51.7,92.8z"/>
	<path class="st0" d="M54.8,93.6c-0.1,0.7,0.8,0.7,1.3,0.9C55.7,94.3,55.4,93.8,54.8,93.6L54.8,93.6z"/>
	<path class="st0" d="M58.2,89.3c-0.3,0.1-0.7,0.5-0.5,0.8c0.4,0.6,1.3,0,1.2-0.7C58.8,89.3,58.4,89.2,58.2,89.3L58.2,89.3z"/>
	<path class="st0" d="M54.4,88.3c-0.2,0.3-0.5,0.5-0.4,0.9c-0.1,0-0.2,0-0.2,0c-0.3-0.2-0.5-0.6-0.2-0.9c0.2-0.2,0.6-0.3,0.9-0.2
		C54.4,88,54.4,88.2,54.4,88.3L54.4,88.3z"/>
	<path class="st0" d="M38.8,86.4c0.9,2.5,2.2,3.5,2.2,3.5c-0.3,1.4-0.8,5.4-0.8,5.4C37.7,91.4,38.8,86.4,38.8,86.4L38.8,86.4z"/>
	<path class="st0" d="M144.5,113.9c-0.4,0.1-0.3,0.5-0.2,0.7c0.4,0.7,0.2,1.5,0.4,2.2c0.1,0.4,0.3,0.7,0.3,1.2
		c0,0.1,0.2,0.3,0.3,0.3c0.6-0.5,0.1-1.5,0-2.2c-0.2-0.6,0-1.2-0.2-1.9C145,114,144.8,113.8,144.5,113.9L144.5,113.9z"/>
	<path class="st0" d="M143.9,121.5c0.4,0,0.8-0.2,1.1,0c0.3,0.3-0.5,0.7-0.3,1.1c0.1,0.4-0.1,0.9,0,1.3c0.1,0.3,0.3,0.5,0.4,0.9
		c0.1,0.4-0.1,0.7-0.2,1.1c-1.5-0.4-1.1-2.5-1-3.6c0-0.4,0.1-0.7,0.1-1.1V121.5L143.9,121.5z"/>
	<path class="st2" d="M84.9,131.8c0.2,1.2,0.5,2.4,0.5,2.4c-1.1,0.8-2.5,2.2-2.5,2.2l-2.2-0.4l1.9-4.8L84.9,131.8L84.9,131.8z"/>
	<path class="st8" d="M67.8,150l5.1-2 M70.7,151.4l3.4-2.1 M73.6,152.4l3.4-2.1 M75.6,154.1l3.2-2.4 M77.8,155.4l-1.7,0.9
		 M106.5,153.9l-4.3,6.1 M112.3,151.7l3.2-5 M103.5,142.5l1.4-1.3 M108.7,144.5l1.2-1.7 M113.6,151.8l2.5-4.4 M115,152.4l1.2-2.1
		 M129.3,150.9l-1,2.9"/>
	<line class="st9" x1="151.7" y1="125.7" x2="155.6" y2="126.2"/>
	<line class="st10" x1="61.9" y1="68.1" x2="60.3" y2="69.6"/>
	<line class="st9" x1="37.8" y1="122.2" x2="40.2" y2="122.2"/>
	<path class="st11" d="M39.7,125.3l1.7,0.1 M41.1,127.7l3.2-0.1 M41.4,129.4l2.7,0.2 M45.2,132.6l3.9-0.1 M43.1,131.3l1.9,0.3"/>
	<path class="st3" d="M65.5,138.3c0.3,0,0.6-0.3,0.6-0.7c0-0.4-0.3-0.7-0.6-0.7c-0.3,0-0.6,0.3-0.6,0.7
		C64.9,138,65.2,138.3,65.5,138.3L65.5,138.3z"/>
	<path class="st3" d="M131.6,142.1c0.2,0,0.3-0.4,0.3-0.9c0-0.5-0.1-1-0.3-1c-0.2,0-0.4,0.4-0.4,1
		C131.2,141.7,131.4,142.1,131.6,142.1L131.6,142.1z"/>
	<path class="st3" d="M132.6,143.5c0.2,0,0.4-0.1,0.4-0.3c0-0.2-0.1-0.4-0.4-0.4c-0.2,0-0.3,0.2-0.3,0.4
		C132.2,143.3,132.4,143.5,132.6,143.5L132.6,143.5z"/>
	<path class="st3" d="M144.2,140.8c0.3,0,0.5-0.2,0.5-0.5c0-0.2-0.2-0.4-0.5-0.4c-0.2,0-0.4,0.2-0.4,0.4
		C143.8,140.6,144,140.8,144.2,140.8L144.2,140.8z"/>
	<path class="st3" d="M139,136.5c0.2,0,0.4-0.2,0.4-0.4c0-0.3-0.1-0.5-0.4-0.5c-0.2,0-0.3,0.2-0.3,0.5
		C138.7,136.3,138.8,136.5,139,136.5L139,136.5z"/>
	<path class="st3" d="M137.8,140.4c0.1-1.2,0.6-2.6,2.1-3c0.1,1.2-0.7,2.1-1.4,3C138.4,140.5,137.7,140.8,137.8,140.4L137.8,140.4z"
		/>
	<line class="st11" x1="40.9" y1="128.4" x2="44" y2="128.6"/>
	<polygon class="st12" points="62.7,59.3 42,57.6 39.9,61.6 62,60.4 62.7,59.3 	"/>
	<path class="st12" d="M68.8,55.2l-21-4.1l5.1-4.4l24.5,9.5c0,0-5.1,0.4-5.3-0.5C71.9,54.8,68.8,55.2,68.8,55.2L68.8,55.2z"/>
	<polygon class="st12" points="54.8,43.6 60.6,39.5 81.1,52.8 80.1,53.9 54.8,43.6 	"/>
	<polygon class="st12" points="82.2,51.1 83.3,50.3 69.2,35.1 65.1,37.5 82.2,51.1 	"/>
	<polygon class="st12" points="84.5,48.7 85.8,47.7 77,32 73.6,33.8 84.5,48.7 	"/>
	<polygon class="st12" points="87.5,47.3 89.3,46.5 84.8,29.6 81.4,30.7 87.5,47.3 	"/>
	<polygon class="st12" points="91.5,46 93.3,46 93.9,29.1 89.3,29.5 91.5,46 	"/>
	<polygon class="st12" points="95.2,46.5 96.6,46.8 101.3,28.9 96.9,28.9 95.2,46.5 	"/>
	<polygon class="st12" points="98.4,47.3 100,48 109.9,30.7 105.8,29.8 98.4,47.3 	"/>
	<polygon class="st12" points="101.9,48.9 102.9,49.9 118,32.9 113.8,31.5 101.9,48.9 	"/>
	<polygon class="st12" points="104.9,51.1 106.5,51.9 129.1,37.7 124.5,34.8 104.9,51.1 	"/>
	<polygon class="st12" points="108.7,53.3 134.4,40.6 138.1,43.8 110,54.3 108.7,53.3 	"/>
	<polygon class="st12" points="131.3,53 144.8,48.7 147.7,52.5 132.6,54.1 131.3,53 	"/>
	<path class="st8" d="M97,165.7c38.1,0,68.5-29.9,68.5-69.3c0-39.3-30.6-70.2-68.7-70.2c-38,0-71.4,30.9-69.2,70.2
		C29.7,134.6,58.9,165.7,97,165.7L97,165.7z M97,181.7c46.6,0,83.8-36.6,83.8-84.8c0-48.1-37.5-85.8-84-85.8
		c-46.6,0-87.4,37.8-84.7,85.8C14.7,143.6,50.4,181.7,97,181.7L97,181.7z"/>
	<path class="st6" d="M82.6,153.8c0,0,11.5-3.5,14.3-10.4 M86,154.1c0,0,9.1-2.1,9.8-5.1 M90.1,154.4c0,0,10.8-2.5,13.3-8.5
		 M105.3,149.6c-0.7,3-11.1,5.4-11.1,5.4l-6.5,1.4 M77.4,146.6l1.3-5.2 M78.1,149l2-7.6 M80.8,147.9l2-7.6 M83.9,147.9l2-7.6
		 M82.2,147.6l2-7.6 M79.5,147.6l2-7.6 M85.2,148.3l2-7.6 M76.1,146.6l1.3-5.2 M65.9,146.9l1.3-5.2 M62.8,146.9l1.3-5.2 M59.4,147.2
		l1.3-5.2 M60.4,148.3l1.4-5.2 M117.9,156.4l1.3-5.2 M122.4,154.5l2.7-5.2 M118.7,155.5l2.7-5.2 M121.7,152.8l2.7-5.2 M125.8,150.4
		l2.7-5.2 M124.8,147.7l2.7-5.2 M89.4,154.7l-3.4,1 M95.6,149c0,0,4.6-3.1,5.3-6.2 M91.8,155.4c0,0,10.8-2.4,13.3-8.5 M83.6,154.4
		c0,0,11.5-3.5,14.3-10.4 M87.4,154.4c0,0,9.1-2.1,9.8-5.1 M96.3,150.4c0,0,4.6-3.1,5.3-6.2"/>
	<path class="st13" d="M110.6,54.3c-24.7-18.4-33.3,1.9-33.3,1.9 M114,54.7c-9-8.1-17.3-9.4-21.7-9.5C79.4,45,74,57.1,74,57.1
		 M117.4,55.2C106.9,44.4,96.2,44,92.3,43.8c-15.1-0.2-21.6,14.1-21.6,14.1 M120.8,55.6c-12-13.4-25.1-13-28.7-13.1
		C75,42.3,67.3,58.8,67.3,58.8 M124.2,56c-13.6-15.9-29-14.8-32.2-14.9C72.9,41,64,59.6,64,59.6 M127.6,56.4
		c-15.1-18.6-32.9-16.6-35.7-16.7c-21.2,0-31.3,20.8-31.3,20.8 M131,56.9c-16.7-21.2-36.9-18.4-39.2-18.5c-23.2,0-34.5,23-34.5,23
		 M134.4,57.3C116.2,33.5,93.6,37,91.7,37C66.4,37.1,54,62.2,54,62.2 M137.7,57.7C118,31.3,93.1,35.7,91.5,35.6
		c-27.3,0.1-40.9,27.5-40.9,27.5 M141.1,58.1c-21.3-28.9-48.5-23.8-49.7-23.9c-29.3,0.2-44.1,29.7-44.1,29.7 M144.5,58.6
		C121.7,27,92.1,32.9,91.3,32.9c-31.3,0.2-47.3,32-47.3,32 M147.9,59c-24.3-34.2-56.3-27.5-56.7-27.5c-33.4,0.3-50.6,34.2-50.6,34.2
		 M151.3,59.4C125.4,22.6,91,30.1,91,30.1c-35.4,0.3-53.8,36.4-53.8,36.4"/>
	<path class="st4" d="M155.1,66.9c-1.1,0.1-2.3,0.4-3.2,0.1c-0.7-0.3-1.3-1.2-2.1-1.5c-1.4-0.5-2.8-0.2-4.2,0
		c-0.8,0.1-1.7,0.6-2.6,0.6c-0.6,0-1-0.8-1.7-0.6c-1,0.4-2,0.8-3.1,0.7c-0.1,0-0.3-0.2-0.5-0.2c-0.7,0-1.6,0.1-2.2-0.1
		c-0.6-0.2-0.9-0.9-1.4-1.4c-1.1-1.1-2.5-1.6-3.7-2.5c-0.2-0.1-0.6-0.1-0.8,0c-0.8,0.4-1.7,0.4-2.5,0.7c-0.3,0.1-0.4,0.7-0.9,0.7
		c-1.6,0-3.1,0.3-4.6,0.4c-0.6,0-1.2-0.3-1.9-0.2c-1.5,0.4-2.8,1.3-4.5,1.1c0,0.1,0,0.3,0,0.3c-1,0.3-1.9-0.6-1.4-1.2
		c0.8-0.9,2-1.7,3.1-2.1c2.6-1,5.3-1.4,8.1-2.1c2.4-0.6,4.6,0.2,7,0.3c0.4,0,0.4,0.6,0.7,0.7c1.9,0.9,4,0.5,5.9,0.6
		c0.7,1.8,2.8,0.9,4.3,1.4c0.2,0.1,0.6,0.1,0.5,0.5c1,0.1,2.1,0,3.1,0.2c1.2,0.3,2.6,0.4,3.9,0c0.2,0,0.2-0.3,0.2-0.5
		c0.8-0.1,1.7-0.3,2.5-0.1c0.5,0.1,0.8,0.5,1.4,0.4c-0.4,1.2,1.2,2.3,1,3.6C155.5,66.9,155.2,66.9,155.1,66.9L155.1,66.9z"/>
	<path class="st4" d="M100.9,67c-0.7-1.1-1.3-2.1-2.5-2.7c-0.5-0.2-1.3-0.4-1.8-0.7c-0.5-0.3-1-0.9-1.6-1.2c-0.5-0.2-1.2,0-1.8-0.1
		c-0.4-0.1-0.9-0.4-1.2-0.3c-1.4,0.1-2.8,0-4.3-0.1c-0.4,0-0.8-0.4-1.1-0.6c-0.8-0.4-1.1-1.4-1.9-1.9c-0.8-0.4-1.6-0.6-2.4-0.5
		c-0.5,0-0.9,0.5-1.4,0.7c-0.5,0.2-1.2,0.1-1.7,0.3c-1.7,0.6-3.5,0.7-5,1.4c-1,0.5-2.1,1.1-3.2,1.5c-1.8,0.5-3.1,1.7-4.9,2.1
		c-0.6,0.1-1.2,0.4-1.8,0.6c-0.7,0.2-1.2,0.9-1.8,1.5c0.4-0.1,0.7,0.4,1,0.1c0.3-0.2,0.6-0.5,0.9-0.6c0.9-0.3,1.7-0.7,2.5-0.9
		c2.4-0.5,4.9,0.3,7-1c2,0.7,4.1-0.5,6,0.3c2.7-1,5.6-1.2,8.5-1.4c0.7-0.1,1,0.6,1.6,0.8c2.2,0.9,4.5,1.1,6.6,2.1
		C98,67.1,99.6,66.1,100.9,67L100.9,67z"/>
	<path class="st4" d="M54.4,67.6c1.5-0.8,3.6-1.3,4.6,0.1c0.2,0.3-1.1,0.9-1.3,0.9c-4.2,1.3-8.5,1.5-12.9,2.4
		c-0.5,0.1-1-1.7-1.5-2.6c-0.3-0.6-1.9,0.6-1.4,1.1c0.8,0.8,2.3,1.1,2.2,2.5c0,0.2-0.8-0.5-0.9,0.3c-1.9-0.6-2.7-2.1-3.9-3.7
		c-0.2-0.3-1,0.3-1.1,0.1c-1.4-1.3,0.1-3.4,1.2-3.4c2.2,0.1,4.4,0,6.5-0.2c4.1-0.2,7.9-2.4,11.8-3.6c5.6-1.9,9.7-9.4,16-7.2
		c3,1,6.1,2.9,9.3,4.5c0.3,0.1-0.3,0.5-0.6,0.5c-3.8-0.7-6.8-3.5-10.2-3.7c-1.2,0-3.1,0.8-3.8,1.9c-0.6,1.1-1.5,2.5-2.7,3.1
		c-0.4,0.2-1.3-0.1-1.5,0.2c-0.6,0.8-0.9,2.2-1.6,2.4c-2.5,0.6-5,1.3-7.4,2.5C54.6,66,54.1,66.8,54.4,67.6L54.4,67.6z"/>
	<path class="st14" d="M84.9,59c1.1-0.9,2.4-1.5,3.4-2.5c0.3-0.3,0.9,0,1.1-0.3c0.4-0.5,1.1-0.7,1.6-0.9c0.6-0.2,1.2-0.5,1.8-0.9
		c3-2.1,6.3-2.7,9.4-4.2c1.6,0.7,2.9,1.9,4.5,2.4c1.4,0.4,2.4,1.5,3.9,1.8c2.8,0.5,5.4,0.6,8.1,0.2c0,0.2,0,0.4,0,0.5
		c-0.4,0.4-1,0.2-1.5,0.4c-0.8,0.2-0.7,1.4-1.4,1.8c-0.3,0.2-0.8,0.4-1.1,0.1c-0.5-0.3-1-0.7-1.6-0.7c-1.3,0-2.5,0-3.7,0.1
		c-0.7,0-1.7,0.3-2.4,0.1c-1.6-0.5-2.9-2.2-4.8-2c-0.5,0-1,0.4-1.5,0.8c-0.5,0.2,0,1.1-0.5,1.3c-3.3,1.2-6.8,0.7-10.2,0.9
		c-1.5,0.1-3,0.8-4.6,0.8L84.9,59L84.9,59z"/>
	<path class="st15" d="M84.9,59c1.1-0.9,2.4-1.5,3.4-2.5c0.3-0.3,0.9,0,1.1-0.3c0.4-0.5,1.1-0.7,1.6-0.9c0.6-0.2,1.2-0.5,1.8-0.9
		c3-2.1,6.3-2.7,9.4-4.2c1.6,0.7,2.9,1.9,4.5,2.4c1.4,0.4,2.4,1.5,3.9,1.8c2.8,0.5,5.4,0.6,8.1,0.2c0,0.2,0,0.4,0,0.5
		c-0.4,0.4-1,0.2-1.5,0.4c-0.8,0.2-0.7,1.4-1.4,1.8c-0.3,0.2-0.8,0.4-1.1,0.1c-0.5-0.3-1-0.7-1.6-0.7c-1.3,0-2.5,0-3.7,0.1
		c-0.7,0-1.7,0.3-2.4,0.1c-1.6-0.5-2.9-2.2-4.8-2c-0.5,0-1,0.4-1.5,0.8c-0.5,0.2,0,1.1-0.5,1.3c-3.3,1.2-6.8,0.7-10.2,0.9
		c-1.5,0.1-3,0.8-4.6,0.8"/>
	<path class="st4" d="M119,54.7c0.5,0,1.1,0.1,1.3-0.1c0.9-1.1,2.3-1.2,3.3-1.7c1.4-0.7,3.2,0.9,5,0.4c1.2-0.3,2.8-1.1,3.5-0.4
		c1.1,1,2.3,1.3,3.2,2.6c0.4,0.5,0.8,1.4,1.1,1.4c2.2,0.2,4.8,0.6,6.9,0c0.9-0.2,0.7,1.6,1.7,1.8c2.7,0.7,5.5,0.3,8.1,1.5
		c0.3,0.1-0.3,0.5-0.3,0.9c0.2,0,0.4,0,0.7,0c-3.6,0.3-7-1.5-10.3-2.2c-1.6-0.3-3.7-0.5-5.6,0c-1.3,0.3-2.1,2-3.3,1.1
		c-2.5-1.9-5-1.1-7.6-2.3c0.8-1.1,3.3,0.2,2.6-0.7c-1.9-2.8-6.2-1.9-9.5-1.6C119.1,55.4,119.7,54.5,119,54.7L119,54.7z"/>
	<path class="st0" d="M98.2,53.3c-0.1,0.9-1.4,1.4-2.2,0.9c0-0.8,1-1.6,1.8-1.4C97.9,52.9,98.2,53.1,98.2,53.3L98.2,53.3z"/>
	<path class="st6" d="M106,151.3c-0.7,3.1-11.2,5.5-11.2,5.5l-6.5,1.4 M107.1,153.6c-0.7,3.1-11.2,5.5-11.2,5.5l-6.5,1.4 M62.1,151
		l1.3-5.2 M66.5,147.6l1.4-5.2 M68.2,147.6l1.3-5.2 M64.2,146.2l1.3-5.2 M63.5,149.6l1.3-5.2 M87.3,146.9l1.3-5.2 M74.4,146.6
		l1.3-5.2 M82.6,151.7c0,0,11.5-3.4,14.3-10.4"/>
	<path class="st0" d="M54,100.4c0.3,0.4,0.3,1.5,0.3,2c1.4,0,3.3,0,3.9,1.4c0.3-0.4,0.8-0.9,0.9-1.2c0-0.7-1.1-1.3-1-2.2
		c0.2-1.3,0.5-2.5,0.6-3.7c-1.3-0.1-2.6-0.3-3.9-0.3c0.6,0.6-0.2,1.1-0.4,1.7c-0.3,0.6-1.8,0.7-1.5,0.9c0.7,0.7,2.5-0.3,3.7-0.5
		C57.5,99.1,55,99.7,54,100.4L54,100.4z"/>
	<path class="st3" d="M52.5,110.4c-0.2,0.2-0.4,0.5-0.2,0.7c0.2,0.3,0.7,0.3,0.9,0c0-0.1,0.2-0.3,0.1-0.4
		C53.1,110.4,52.7,110.6,52.5,110.4L52.5,110.4z"/>
	<path class="st3" d="M48,110.8c-0.1,0.2-0.4,0.4-0.2,0.7c0.2,0.3,0.7,0.2,0.8,0c0-0.1,0.2-0.3,0.1-0.5
		C48.6,110.8,48.3,110.9,48,110.8L48,110.8z"/>
	<path class="st16" d="M97.1,163.1c36.6,0,65.9-28.8,65.9-66.6c0-37.8-29.5-67.6-66.1-67.6c-36.6,0-68.7,29.8-66.6,67.6
		C32.4,133.1,60.4,163.1,97.1,163.1L97.1,163.1z"/>
	<path class="st8" d="M97,184.3c48,0,86.3-37.7,86.3-87.3c0-49.6-38.6-88.5-86.6-88.5S6.8,47.5,9.5,97C12.2,145,49,184.3,97,184.3
		L97,184.3z"/>
	<path class="st6" d="M115.7,157.4l1.3-5.2 M113.5,158.3l1.3-5.2 M112.5,159l1.3-5.2 M111.1,159.3l1.3-5.2 M108.9,159.8l1.3-5.2"/>
	<path class="st3" d="M21.4,95.1l-6.8-0.6l0.1-1l6.8,0.6c0.8,0,1.5-0.1,2-0.5c0.5-0.4,0.8-1,0.8-1.7c0.1-0.6-0.1-1.2-0.5-1.8
		c-0.4-0.5-1.2-0.8-2.1-0.9l-6.5-0.5l0.1-1l6.5,0.5c0.8,0.1,1.4,0.4,2,0.7c0.5,0.3,0.9,0.8,1.1,1.3c0.3,0.5,0.3,1.1,0.3,1.7
		c0,0.9-0.4,1.8-1.1,2.4C23.4,94.9,22.4,95.2,21.4,95.1L21.4,95.1z M25.5,86.1l-1.8-0.2l0.1-1.1l1.8,0.2L25.5,86.1L25.5,86.1z
		 M24.2,78c0.6,0.1,1.3,0.1,1.7-0.2c0.5-0.3,0.8-0.7,0.9-1.2c0.1-0.5,0.1-1-0.1-1.5c-0.2-0.5-0.7-0.8-1.2-0.9
		c-0.3-0.1-0.8-0.1-1.2,0c-0.4,0.1-0.9,0.6-1.4,1.4c-0.5,0.8-1.1,1.5-1.5,1.8c-0.4,0.3-1.2,0.4-2.1,0.1c-0.7-0.2-1.2-0.7-1.5-1.3
		c-0.3-0.6-0.4-1.4-0.2-2.1c0.2-0.8,0.6-1.4,1.3-1.7c0.7-0.3,1.3-0.5,2-0.3l0.1,0l-0.2,1c-0.6,0-1.1,0-1.3,0.2
		c-0.3,0.2-0.7,0.6-0.8,1c-0.1,0.4-0.1,0.8,0.1,1.2c0.1,0.5,0.5,0.8,1,0.9c0.5,0.2,1,0.2,1.3,0c0.3-0.2,0.7-0.8,1-1.4
		c0.4-0.6,0.8-1.2,1.2-1.6c0.4-0.3,1-0.5,1.8-0.5c0.2,0,0.4,0,0.6,0c0.7,0.2,1.3,0.7,1.8,1.3c0.4,0.7,0.5,1.5,0.3,2.4
		c-0.1,0.5-0.4,1-0.7,1.5c-0.4,0.3-0.9,0.6-1.4,0.8c-0.5,0.1-1.1,0.1-1.6,0L24.2,78L24.2,78z M28.9,72.2l-1.7-0.5l0.3-1.1l1.7,0.5
		L28.9,72.2L28.9,72.2z M31.5,65.4l-8.8-4.9l1.3-2.4c0.6-1.1,1.4-1.9,2.2-2.5c0.8-0.5,1.8-0.8,2.6-0.8c0.9,0,1.8,0.3,2.5,0.7
		c0.8,0.4,1.5,1.1,1.9,1.9c0.4,0.8,0.6,1.7,0.5,2.5c0,0.9-0.2,1.7-0.6,2.4L31.5,65.4L31.5,65.4z M24,60.1l7.2,4l0.7-1.3
		c0.7-1.2,1-2.5,0.8-3.5c-0.1-1.1-0.8-2.1-1.9-2.8c-0.9-0.6-2.1-0.8-3.1-0.5c-1.1,0.3-2.1,1.2-2.9,2.6L24,60.1L24,60.1z M36.5,56.6
		l-8.2-5.7l3.1-4.5l0.7,0.5l-2.5,3.7l3,2.1l2.5-3.5l0.7,0.5l-2.5,3.5l3,2.1l2.5-3.7l0.7,0.5L36.5,56.6L36.5,56.6z M40.7,50.8
		L33,44.4l1.7-2c0.8-1,1.6-1.5,2.4-1.8c0.7-0.2,1.6,0,2.5,0.6c0.5,0.3,0.8,0.8,1.1,1.3c0.1,0.5,0.2,1.1,0,1.7
		c-0.2,0.6-0.5,1.2-0.9,1.7l-1.4,1.7l3.1,2.5L40.7,50.8L40.7,50.8z M34.4,44.2l3.2,2.7l1.3-1.6c0.5-0.7,0.8-1.3,0.8-1.9
		c-0.1-0.6-0.4-1.1-0.9-1.5c-0.6-0.5-1.1-0.5-1.7-0.3c-0.5,0.2-1.1,0.6-1.7,1.3L34.4,44.2L34.4,44.2z M41.2,35.4l0.9-0.7l9.9,4.7
		L51.1,40l-3.4-1.5l-3.5,3l1.1,3.5l-0.7,0.7L41.2,35.4L41.2,35.4z M42.3,35.8l1.6,4.8l2.9-2.5L42.3,35.8L42.3,35.8z M52.9,38.8
		L47,30.7l2.1-1.6c1.3-0.9,2.4-1.3,3.1-1.1c0.8,0.1,1.5,0.5,2.1,1.2c0.3,0.3,0.5,0.8,0.6,1.4c0.1,0.5,0,1.1-0.1,1.6
		c-0.1,0.5-0.6,1-1,1.3l4.5,1.3l-1,0.7l-5.5-1.7l0.7-0.5c0.7-0.5,1.2-1.1,1.4-1.7c0.2-0.6,0.1-1.3-0.3-1.8c-0.4-0.5-1-0.9-1.6-0.9
		c-0.7,0-1.4,0.1-2,0.6l-1.6,1.2l5.4,7.4L52.9,38.8L52.9,38.8z M61.1,33.2l-4.7-7.8l-2.1,1.2l-0.5-0.8l4.8-2.9l0.5,0.8l-1.9,1.2
		l4.7,7.8L61.1,33.2L61.1,33.2z M64.8,30.9l-3.8-9.3l1.5-0.6l6.6,6.6l0.2-9.4l1.4-0.6l3.8,9.3l-0.9,0.4l-3.4-8.2l-0.1,9.7l-0.8,0.3
		l-6.8-6.9l3.4,8.2L64.8,30.9L64.8,30.9z M76.7,26.7L74.2,17l5.3-1.3l0.2,0.9l-4.4,1.1l0.8,3.5l4.2-1.1l0.2,0.8L76.5,22l0.9,3.6
		l4.4-1.1l0.2,0.8L76.7,26.7L76.7,26.7z M84.7,24.8l-1,0.1l-1.2-10l1.4-0.1l6.6,7.6l-1-8.3l1-0.1l1.2,10l-1,0.1l-7.1-8L84.7,24.8
		L84.7,24.8z M95.2,24l-0.3-9.1l-2.4,0l0-0.9l5.6-0.2l0,0.9l-2.3,0.1l0.3,9.1L95.2,24L95.2,24z M103.8,19c0.1-0.6,0.3-1.3,0.7-1.8
		c0.3-0.5,0.8-1.1,1.4-1.4c0.5-0.4,1.2-0.7,1.8-0.9c0.7-0.2,1.5-0.2,2.3-0.1c0.8,0.1,1.7,0.6,2.5,1.2c0.7,0.6,1.3,1.4,1.6,2.3
		c0.3,0.8,0.4,1.8,0.3,2.7c-0.2,0.9-0.7,1.8-1.3,2.5c-0.6,0.8-1.5,1.2-2.3,1.5c-0.9,0.2-1.8,0.2-2.6,0c-0.8-0.1-1.7-0.4-2.5-1
		c-0.6-0.6-1.2-1.3-1.6-2.3C103.7,21,103.6,20,103.8,19L103.8,19z M104.8,19.1c-0.2,1-0.1,1.9,0.3,2.6c0.3,0.7,0.8,1.4,1.4,1.8
		c0.5,0.4,1.2,0.6,1.8,0.7c0.9,0.2,2,0,3-0.5c1-0.5,1.7-1.5,2-2.7c0.1-0.8,0.1-1.6-0.1-2.3c-0.3-0.8-0.7-1.4-1.4-1.9
		c-0.6-0.5-1.4-0.8-2-1c-0.8-0.1-1.5,0-2.3,0.2c-0.6,0.2-1.3,0.8-1.7,1.3C105.2,17.9,104.9,18.5,104.8,19.1L104.8,19.1z M114.9,26.4
		l3.2-9.5l4.9,1.7l-0.3,0.9l-3.9-1.3l-1.2,3.4l3.7,1.3l-0.3,0.8l-3.7-1.3l-1.5,4.3L114.9,26.4L114.9,26.4z M126,30.7l3.7-8.3
		l-2.2-0.9l0.4-0.9l5.1,2.3l-0.4,0.9l-2.1-0.9l-3.7,8.3L126,30.7L126,30.7z M130,32.5l5.4-8.4l0.9,0.6l-2.4,3.7l4.4,2.8l2.4-3.7
		l0.8,0.5l-5.4,8.4l-0.8-0.5l2.5-3.9l-4.4-2.8l-2.5,3.9L130,32.5L130,32.5L130,32.5z M137.7,37.8l6.3-7.8l4.3,3.5l-0.6,0.7l-3.5-2.8
		l-2.3,2.8l3.4,2.7l-0.5,0.7l-3.4-2.7l-2.4,2.9l3.5,2.8l-0.5,0.6L137.7,37.8L137.7,37.8z M146.7,45.7l-0.7-0.7l7.3-6.8l0.7,0.7
		L146.7,45.7L146.7,45.7z M148.9,48.1l-0.7-0.8l7.7-6.4l0.9,1l-2.7,9.8l6.4-5.4l0.6,0.7l-7.7,6.4l-0.6-0.7l2.8-10.2L148.9,48.1
		L148.9,48.1z M155.2,56.4l7.7-4.8l-1.2-2l0.8-0.5l2.9,4.8l-0.8,0.5l-1.2-1.9l-7.7,4.8L155.2,56.4L155.2,56.4z M157.6,59.9l8.9-4.6
		l2.5,4.9l-0.8,0.4l-2-4l-3.2,1.7l2,3.8l-0.8,0.4l-2-3.8l-3.3,1.7l2,4l-0.8,0.4L157.6,59.9L157.6,59.9z M160.8,66.5l9.4-3.6l0.9,2.5
		c0.5,1.4,0.7,2.6,0.2,3.3c-0.3,0.7-0.9,1.3-1.8,1.7c-0.4,0.2-0.9,0.2-1.5,0.2c-0.5,0-1-0.2-1.5-0.5c-0.5-0.3-0.8-0.8-1-1.3
		l-2.5,3.9l-0.4-1.1l3-4.9l0.3,0.7c0.3,0.9,0.7,1.5,1.3,1.9c0.5,0.3,1.2,0.4,1.8,0.1c0.6-0.2,1.2-0.7,1.3-1.3
		c0.1-0.6,0.1-1.4-0.1-2.1l-0.7-1.9l-8.5,3.2L160.8,66.5L160.8,66.5z M164,75.3l-0.3-0.9l9.5-3.1l0.3,0.9L164,75.3L164,75.3z
		 M169.7,75.8c0.6-0.1,1.3,0,1.9,0.1c0.6,0.1,1.3,0.4,1.8,0.8c0.5,0.3,1,0.9,1.5,1.4c0.4,0.6,0.7,1.3,0.8,2.1
		c0.1,0.8,0.1,1.8-0.2,2.7c-0.4,0.9-0.9,1.7-1.6,2.3c-0.7,0.6-1.6,1-2.5,1.2c-0.9,0.2-1.9,0-2.7-0.3c-0.9-0.3-1.6-1-2.2-1.7
		c-0.5-0.8-0.8-1.7-0.9-2.5c-0.1-0.8-0.1-1.7,0.1-2.5c0.3-0.8,0.8-1.6,1.6-2.3C167.8,76.4,168.7,76,169.7,75.8L169.7,75.8z
		 M169.9,76.8c-1,0.2-1.8,0.6-2.3,1.2c-0.6,0.6-1.1,1.2-1.2,1.9c-0.2,0.6-0.2,1.4-0.1,2c0.2,0.9,0.7,1.9,1.5,2.6
		c0.9,0.7,2,1.1,3.3,0.9c0.8-0.1,1.5-0.4,2.1-0.9c0.6-0.5,1-1.1,1.3-1.9c0.2-0.8,0.3-1.6,0.2-2.2c-0.1-0.8-0.4-1.5-0.9-2.1
		c-0.5-0.5-1.3-1-1.9-1.2C171.3,76.7,170.5,76.7,169.9,76.8L169.9,76.8z M166.9,88.8l10-0.8l0.2,2.6c0.1,1.6,0,2.7-0.6,3.2
		c-0.5,0.6-1.3,1-2.2,1.2c-0.5,0.1-1,0-1.5-0.1c-0.5-0.2-0.9-0.5-1.3-1c-0.4-0.4-0.6-1-0.6-1.6l-3.4,3.1l-0.1-1.2l4.2-3.9l0,0.8
		c0.1,0.9,0.3,1.7,0.7,2.2c0.4,0.5,1.1,0.7,1.8,0.6c0.7,0,1.3-0.4,1.6-0.9c0.3-0.5,0.5-1.3,0.5-2l-0.2-2l-9.1,0.8L166.9,88.8
		L166.9,88.8z"/>
	<path class="st3" d="M57.2,168.4l3.8-8.1l1.2,0.6l-0.2,8.3l6.3-5.5l1.2,0.6l-3.8,8.1l-0.8-0.4l3.3-7.2l-6.5,5.8l-0.7-0.3l0.2-8.6
		l-3.3,7.2L57.2,168.4L57.2,168.4z M68.2,169.8c0.2-0.6,0.6-1.2,1.1-1.6c0.5-0.4,1.1-0.7,1.7-0.8c0.6,0,1.2,0,1.8,0.2
		c1.1,0.5,1.8,1.2,2,2.3l0.4-1.1l0.9,0.3l-2.3,6.2l-0.9-0.3l0.4-1.1c-0.3,0.3-0.9,0.5-1.3,0.6c-0.6-0.1-1.1-0.1-1.6-0.3
		c-0.6-0.2-1.1-0.5-1.5-0.8c-0.4-0.5-0.7-1-0.8-1.6C67.9,171.1,68,170.4,68.2,169.8L68.2,169.8z M69.1,169.9c-0.1,0.3-0.1,0.7-0.1,1
		c0,0.4,0,0.8,0.2,1c0.1,0.3,0.3,0.6,0.6,0.8c0.2,0.2,0.5,0.4,0.8,0.5c0.7,0.2,1.4,0.3,2,0c0.7-0.3,1.2-0.8,1.4-1.4
		c0.2-0.7,0.3-1.4,0-1.9c-0.3-0.7-0.7-1.2-1.4-1.5c-0.4-0.2-0.9-0.2-1.4-0.1c-0.4,0-0.9,0.3-1.3,0.5
		C69.5,169.3,69.2,169.5,69.1,169.9L69.1,169.9z M75.3,175.5l1.5-6.4l0.8,0.2l-0.2,0.9c0.5-0.7,1.3-0.9,2.2-0.7l-0.2,0.9
		c-0.3,0-0.6,0-0.9,0c-0.3,0-0.6,0.2-0.9,0.5c-0.2,0.2-0.4,0.5-0.5,0.8l-0.9,3.9L75.3,175.5L75.3,175.5z M79.2,173.2
		c0.1-0.7,0.4-1.3,0.8-1.7c0.4-0.5,0.9-0.8,1.5-1c0.5-0.2,1.1-0.3,1.7-0.2c0.7,0.1,1.4,0.4,2,0.8c0.5,0.4,1,1.1,1.1,1.9l-1-0.2
		c-0.1-0.3-0.3-0.5-0.5-0.8c-0.2-0.2-0.5-0.4-0.7-0.6c-0.3-0.1-0.6-0.2-1-0.3c-0.7,0-1.4,0.2-1.9,0.6c-0.5,0.4-0.9,1-1,1.7
		c-0.1,0.6,0,1.3,0.4,1.9c0.4,0.6,0.9,1,1.7,1.1c0.5,0,1,0,1.5-0.1c0.5-0.1,0.9-0.4,1.1-0.8l1,0.2c-1,1.3-2.2,1.7-3.6,1.4
		c-0.6-0.1-1.1-0.3-1.7-0.5c-0.5-0.4-0.8-0.9-1-1.5C79.1,174.5,79.1,173.8,79.2,173.2L79.2,173.2L79.2,173.2L79.2,173.2z
		 M86.6,177.9l0.7-8.9l0.9,0l-0.2,3.3c0.5-0.7,1.2-1,2.2-0.9c0.4,0,0.9,0.2,1.3,0.5c0.4,0.3,0.8,0.7,1,1.1c0.2,0.5,0.3,1,0.3,1.6
		l-0.3,3.8l-0.9,0l0.3-3.8c0-0.4,0-0.8-0.1-1.2c-0.1-0.3-0.5-0.6-0.7-0.7c-0.3-0.2-0.7-0.3-1-0.4c-0.5,0-1,0.1-1.5,0.4
		c-0.4,0.3-0.6,0.8-0.7,1.4l-0.3,3.9L86.6,177.9L86.6,177.9z M97.5,171.6c0-0.7,0.2-1.4,0.6-1.8c0.5-0.4,1-0.7,1.6-0.7
		c0.4,0,0.8,0.1,1.1,0.3c0.3,0.2,0.7,0.5,0.9,0.9c0.2,0.3,0.3,0.8,0.3,1.2c0,0.7-0.2,1.3-0.8,1.7c0.4,0.2,0.8,0.6,1,0.9
		c0.3,0.4,0.4,0.9,0.4,1.4c0,0.8-0.3,1.5-0.8,2.1c-0.5,0.6-1.2,0.7-1.9,0.7c-0.7,0-1.6,0-2.1-0.5c-0.6-0.5-0.9-1.3-0.9-2.2h0.9
		c0.1,0.6,0.3,1.2,0.7,1.5c0.3,0.3,0.8,0.5,1.3,0.5c0.5,0,1-0.2,1.3-0.5c0.4-0.4,0.7-0.9,0.7-1.5c0-0.6-0.3-1.2-0.7-1.5
		c-0.4-0.3-1-0.5-1.7-0.5h-0.1v-0.8c0.5,0,0.9-0.1,1.3-0.3c0.4-0.2,0.6-0.6,0.6-1.1c0-0.3-0.1-0.7-0.4-1c-0.3-0.3-0.6-0.4-1-0.4
		c-0.3,0-0.6,0.1-0.9,0.4c-0.2,0.2-0.4,0.7-0.5,1.2H97.5L97.5,171.6z M105.3,176.2l0.9-0.1l-0.8,2.4l-0.8,0.1L105.3,176.2
		L105.3,176.2z M111.6,168.3l-1.5,0.3l-0.2-0.8l2.4-0.5l2.1,8.7l-0.9,0.2L111.6,168.3L111.6,168.3z M120,174.6
		c-0.7,0.2-1.6,0.3-2.3,0c-0.7-0.4-1.1-0.9-1.4-1.6c-0.1-0.4-0.1-1,0-1.5c0.1-0.5,0.3-1,0.7-1.3c-0.3,0-0.6-0.2-0.9-0.4
		c-0.3-0.3-0.5-0.6-0.6-0.9c-0.2-0.6-0.1-1.2,0.1-1.7c0.2-0.6,0.8-1,1.5-1.3c0.4-0.1,0.9-0.1,1.2-0.1c0.4,0.1,0.8,0.3,1.1,0.6
		c0.2,0.3,0.5,0.6,0.6,1c0.1,0.3,0.1,0.7,0,1.1c0,0.3-0.2,0.7-0.4,1c0.5,0,1,0.2,1.4,0.5c0.4,0.3,0.7,0.7,0.8,1.1
		c0.1,0.5,0.2,1,0.1,1.5c-0.1,0.5-0.3,0.9-0.7,1.3C120.9,174.2,120.5,174.4,120,174.6L120,174.6z M116.3,168.6
		c0.1,0.4,0.5,0.6,0.8,0.8c0.4,0.1,0.8,0,1.1,0c0.3-0.1,0.7-0.3,0.8-0.7c0.1-0.4,0.2-0.7,0.1-1.1c-0.1-0.4-0.5-0.7-0.8-0.8
		c-0.4-0.2-0.9-0.2-1.2-0.1c-0.3,0.1-0.6,0.4-0.8,0.8C116.2,167.8,116.2,168.2,116.3,168.6L116.3,168.6z M117.4,171.3
		c-0.2,0.4-0.3,1-0.1,1.4c0.1,0.5,0.5,0.8,0.9,1.1c0.5,0.2,1,0.2,1.5,0c0.5-0.2,0.9-0.5,1.1-0.9c0.2-0.5,0.3-1,0.1-1.5
		c-0.1-0.5-0.5-0.9-1-1c-0.4-0.3-1-0.2-1.5-0.1C117.9,170.5,117.5,170.8,117.4,171.3L117.4,171.3z M123.8,163.4l1.1-0.4l2.5,6
		l0.7-0.3l0.3,0.7l-0.7,0.3l0.7,1.5l-0.8,0.3l-0.7-1.5l-4.3,1.8l-0.3-0.7L123.8,163.4L123.8,163.4z M124.5,164.4l-1.2,6.3l3.3-1.4
		L124.5,164.4L124.5,164.4z M126.7,162.9c0.2-0.7,0.8-1.3,1.5-1.7c0.5-0.2,1.1-0.3,1.6-0.3c0.5,0.1,1.1,0.3,1.6,0.5
		c0.4,0.3,0.8,0.8,1.1,1.3c0.3,0.6,0.4,1.3,0.3,2l-0.4,4.7l-1,0.5l0.4-3.7c-0.2,0.3-0.5,0.6-0.8,0.7c-0.5,0.2-1,0.3-1.5,0.3
		c-0.5-0.1-1-0.3-1.5-0.6c-0.4-0.3-0.8-0.7-1.1-1.2C126.5,164.6,126.4,163.7,126.7,162.9L126.7,162.9z M127.7,162.7
		c-0.3,0.7-0.4,1.6,0,2.3c0.2,0.5,0.8,0.8,1.3,1.1c0.5,0.2,1.1,0.1,1.7-0.1c0.5-0.3,0.9-0.7,1.1-1.2c0.2-0.5,0.1-1.2-0.2-1.9
		c-0.2-0.4-0.4-0.7-0.8-0.9c-0.3-0.2-0.7-0.4-1.1-0.3c-0.3,0-0.8,0-1.1,0.2C128.3,162,128,162.3,127.7,162.7L127.7,162.7z"/>
</g>
</svg>
